<svg width="579" height="116" viewBox="0 0 579 116" fill="none" xmlns="http://www.w3.org/2000/svg">
<path d="M96.0977 29.9104C103.576 29.9104 110.747 32.8318 116.035 38.0318C121.322 43.2319 124.293 50.2847 124.293 57.6387C124.293 63.1228 122.639 68.4838 119.541 73.0437C116.443 77.6036 112.039 81.1576 106.887 83.2563C101.736 85.355 96.0664 85.9041 90.5971 84.8342C85.1278 83.7643 80.1039 81.1234 76.1607 77.2456C72.2176 73.3677 69.5323 68.427 68.4444 63.0482C67.3564 57.6695 67.9148 52.0942 70.0488 47.0275C72.1828 41.9608 75.7967 37.6303 80.4333 34.5835C85.07 31.5366 90.5212 29.9104 96.0977 29.9104V29.9104Z" fill="url(#paint0_linear)"/>
<path fill-rule="evenodd" clip-rule="evenodd" d="M96.0972 45.9633C98.7228 45.9633 101.148 46.802 103.114 48.2208C102.978 48.762 102.906 49.3288 102.906 49.912C102.906 53.0673 105.016 55.7368 107.924 56.6315C107.953 56.9632 107.969 57.2996 107.969 57.6384C107.969 64.0868 102.654 69.3134 96.0972 69.3134C89.5402 69.3134 84.2256 64.0868 84.2256 57.6384C84.2256 51.19 89.5402 45.9633 96.0972 45.9633V45.9633Z" fill="#151616"/>
<path fill-rule="evenodd" clip-rule="evenodd" d="M128.616 95.1506C148.374 84.0534 168.58 72.3471 191.229 57.3128C153.981 30.633 126.33 13.5732 93.0704 14.0039C57.6235 16.4754 39.6028 53.5104 59.6276 79.5711C63.3554 81.1783 67.3192 82.3581 71.4509 83.0464C62.4615 74.9051 57.0772 64.0376 61.6016 45.8098C66.4419 31.3229 75.0148 25.6236 87.0139 21.998C113.941 17.033 143.179 32.7168 175.343 57.3984C167.203 62.8898 155.851 68.8733 143.992 74.4582C140.76 82.6135 135.415 89.7285 128.616 95.1506Z" fill="#1A55A5"/>
<path fill-rule="evenodd" clip-rule="evenodd" d="M63.5786 20.1261C43.8206 31.2233 23.6145 42.9295 0.965576 57.9639C38.2138 84.6436 65.8646 101.703 99.1245 101.273C134.571 98.8012 152.592 61.7662 132.567 35.7055C128.839 34.0983 124.876 32.9186 120.744 32.2302C129.733 40.3715 135.118 51.239 130.593 69.4668C125.753 83.9537 117.18 89.653 105.181 93.2786C78.254 98.2436 49.0157 82.5598 16.8516 57.8782C24.9922 52.3868 36.3436 46.4033 48.2033 40.8185C51.4346 32.6631 56.7794 25.5482 63.5786 20.1261Z" fill="#D9D9DA"/>
<path fill-rule="evenodd" clip-rule="evenodd" d="M216.082 2.76465H268.406V16.0231H230.139V29.1818H263.765V42.4404H230.139V74.8841H216.082V2.76465V2.76465Z" fill="#1A55A5"/>
<path fill-rule="evenodd" clip-rule="evenodd" d="M316.297 0.625854C326.652 0.625854 335.563 4.32146 343.01 11.6963C350.475 19.0711 354.199 28.0674 354.199 38.6696C354.199 49.1879 350.527 58.0846 343.164 65.3591C335.818 72.6336 326.89 76.2786 316.399 76.2786C305.398 76.2786 296.267 72.5332 289.006 65.0581C281.727 57.583 278.089 48.7034 278.089 38.4192C278.089 31.546 279.789 25.2079 283.173 19.4219C286.557 13.653 291.216 9.07077 297.133 5.69257C303.068 2.31507 309.462 0.625854 316.297 0.625854V0.625854ZM316.093 14.0706C309.342 14.0706 303.663 16.395 299.072 21.0269C294.464 25.6596 292.168 31.546 292.168 38.7031C292.168 46.6635 295.059 52.9674 300.857 57.5993C305.364 61.2288 310.516 63.0345 316.348 63.0345C322.928 63.0345 328.54 60.6766 333.165 55.9778C337.807 51.2783 340.12 45.4923 340.12 38.6028C340.12 31.7467 337.79 25.9436 333.115 21.1942C328.455 16.4456 322.776 14.0706 316.093 14.0706V14.0706Z" fill="#1A55A5"/>
<path fill-rule="evenodd" clip-rule="evenodd" d="M433.9 15.0739L424.122 24.2046C417.474 17.3151 410.009 13.87 401.694 13.87C394.688 13.87 388.771 16.2279 383.976 20.9267C379.164 25.6262 376.766 31.4122 376.766 38.3017C376.766 43.1008 377.838 47.3655 379.963 51.0774C382.089 54.8064 385.098 57.7329 388.975 59.8567C392.869 61.9805 397.188 63.0343 401.949 63.0343C405.996 63.0343 409.703 62.2986 413.053 60.8101C416.42 59.3216 420.109 56.613 424.122 52.6997L433.594 62.4324C428.186 67.6327 423.068 71.2451 418.256 73.2515C413.444 75.275 407.934 76.2782 401.762 76.2782C390.37 76.2782 381.035 72.7335 373.774 65.6263C366.513 58.5362 362.891 49.4225 362.891 38.3351C362.891 31.1446 364.541 24.7731 367.856 19.1878C371.155 13.6025 375.882 9.1207 382.055 5.7261C388.21 2.3315 394.842 0.626099 401.966 0.626099C408.002 0.626099 413.818 1.8797 419.429 4.3885C425.024 6.8965 429.853 10.4591 433.9 15.0739V15.0739Z" fill="#1A55A5"/>
<path fill-rule="evenodd" clip-rule="evenodd" d="M444.726 0.632324H463.02V46.2307C463.02 50.3373 463.492 53.2453 464.423 54.9412C465.361 56.65 466.889 58.0113 469.051 59.0311C471.206 60.0471 473.814 60.5543 476.84 60.5543C480.067 60.5543 482.825 59.9824 485.164 58.8432C487.496 57.7071 489.1 56.2736 489.993 54.5131C490.88 52.7662 491.328 49.4133 491.328 44.4679V0.632324H509.622V44.5789C509.622 52.0058 509.088 57.1398 507.997 60.0144C506.907 62.8898 504.837 65.6617 501.766 68.3317C498.718 71.001 495.179 72.9866 491.172 74.2696C487.189 75.5533 482.538 76.2035 477.241 76.2035C470.297 76.2035 464.245 74.9715 459.103 72.5243C453.94 70.0603 450.268 66.9971 448.042 63.3004C445.84 59.6037 444.726 53.3746 444.726 44.5789V0.632324V0.632324Z" fill="#1A55A5"/>
<path fill-rule="evenodd" clip-rule="evenodd" d="M530.282 53.9924C534.615 62.9421 540.864 64.1124 547.972 64.1124C553.002 64.1124 556.801 63.098 559.352 61.0701C561.902 59.0421 563.186 56.6696 563.186 53.9542C563.186 52.2005 562.644 50.7226 561.577 49.4852C560.509 48.2647 558.628 47.199 555.95 46.3054C554.123 45.6867 549.963 44.6212 543.451 43.0737C535.075 41.0802 529.195 38.6397 525.812 35.7349C521.055 31.6607 518.685 26.6936 518.685 20.832C518.685 17.0679 519.806 13.5276 522.031 10.2455C524.275 6.96184 527.495 4.47035 531.71 2.75015C535.924 1.03155 540.99 0.172241 546.96 0.172241C556.674 0.172241 564 2.21785 568.903 6.32565C570.963 8.04575 572.612 10.0041 573.85 12.2039L563.386 20.9588C560.381 14.8658 552.776 12.5477 546.761 12.5477C542.238 12.5477 538.692 13.4413 536.142 15.2294C534.496 16.3805 533.664 17.9105 533.664 19.8353C533.664 21.5891 534.441 23.0837 535.997 24.3227C537.969 25.9198 542.763 27.5712 550.378 29.289C557.995 30.9908 563.621 32.7781 567.257 34.5998C570.911 36.4391 573.769 38.9316 575.831 42.1113C577.893 45.2911 578.925 49.2102 578.925 53.8679C578.925 58.0964 577.695 62.0668 575.216 65.7621C572.738 69.4575 569.247 72.208 564.724 73.9953C560.202 75.8002 554.558 76.694 547.81 76.694C537.987 76.694 530.443 74.5453 525.18 70.2312C523.202 68.6173 521.526 66.723 520.149 64.5522L530.282 53.9924V53.9924Z" fill="#1A55A5"/>
<path fill-rule="evenodd" clip-rule="evenodd" d="M215.184 84.5612V89.8447H578.472V84.5612H215.184V84.5612Z" fill="#1A55A5"/>
<path fill-rule="evenodd" clip-rule="evenodd" d="M215.184 97.4463H221.342C222.732 97.4463 223.79 97.5551 224.519 97.7771C225.496 98.0756 226.337 98.6088 227.034 99.3758C227.734 100.139 228.264 101.076 228.629 102.185C228.991 103.292 229.174 104.661 229.174 106.283C229.174 107.713 229.003 108.94 228.66 109.973C228.244 111.237 227.649 112.258 226.874 113.038C226.289 113.63 225.499 114.091 224.507 114.422C223.763 114.668 222.77 114.789 221.525 114.789H215.184V97.4463V97.4463ZM218.571 100.377V111.858H221.081C222.02 111.858 222.697 111.802 223.113 111.693C223.662 111.552 224.114 111.31 224.472 110.97C224.834 110.631 225.126 110.074 225.352 109.299C225.582 108.524 225.694 107.462 225.694 106.122C225.694 104.781 225.582 103.756 225.352 103.037C225.126 102.319 224.807 101.762 224.398 101.358C223.989 100.958 223.472 100.684 222.841 100.542C222.374 100.434 221.451 100.377 220.081 100.377H218.571V100.377ZM232.051 114.789V97.4463H239.163C240.95 97.4463 242.25 97.6036 243.06 97.9141C243.874 98.2252 244.519 98.778 245.006 99.5739C245.493 100.373 245.738 101.281 245.738 102.307C245.738 103.611 245.372 104.685 244.637 105.532C243.901 106.38 242.803 106.913 241.339 107.135C242.067 107.575 242.667 108.06 243.137 108.588C243.612 109.117 244.251 110.058 245.053 111.407L247.093 114.789H243.056L240.635 111.003C239.766 109.658 239.171 108.81 238.848 108.459C238.528 108.112 238.19 107.87 237.831 107.741C237.47 107.611 236.901 107.547 236.123 107.547H235.438V114.789H232.051V114.789ZM235.438 104.786H237.937C239.556 104.786 240.564 104.713 240.97 104.571C241.37 104.43 241.69 104.184 241.915 103.837C242.145 103.49 242.257 103.054 242.257 102.533C242.257 101.947 242.106 101.479 241.807 101.116C241.507 100.757 241.083 100.53 240.538 100.438C240.261 100.397 239.439 100.377 238.074 100.377H235.438V104.786ZM248.871 114.789V111.471H252.072V114.789H248.871ZM255.407 97.4463H262.095C263.423 97.4463 264.408 97.5025 265.057 97.6156C265.711 97.7329 266.291 97.971 266.806 98.3299C267.32 98.6937 267.748 99.1742 268.09 99.7754C268.433 100.377 268.603 101.055 268.603 101.802C268.603 102.61 268.394 103.356 267.973 104.031C267.553 104.708 266.981 105.213 266.26 105.553C267.277 105.863 268.055 106.388 268.603 107.131C269.149 107.874 269.421 108.746 269.421 109.751C269.421 110.543 269.246 111.31 268.892 112.056C268.538 112.803 268.055 113.401 267.44 113.849C266.829 114.293 266.074 114.567 265.174 114.672C264.614 114.733 263.255 114.773 261.102 114.789H255.407V97.4463V97.4463ZM258.794 100.328V104.325H261.005C262.317 104.325 263.134 104.305 263.454 104.264C264.03 104.196 264.486 103.99 264.816 103.647C265.147 103.304 265.311 102.855 265.311 102.298C265.311 101.762 265.166 101.33 264.883 100.995C264.598 100.66 264.174 100.457 263.614 100.389C263.279 100.349 262.317 100.328 260.732 100.328H258.794ZM258.794 107.208V111.858H261.924C263.139 111.858 263.914 111.822 264.24 111.754C264.742 111.657 265.151 111.426 265.466 111.059C265.781 110.688 265.941 110.199 265.941 109.582C265.941 109.057 265.821 108.617 265.576 108.253C265.334 107.89 264.98 107.623 264.52 107.458C264.061 107.293 263.061 107.208 261.523 107.208H258.794ZM272.274 114.789V97.4463H284.653V100.377H275.662V104.229H284.023V107.159H275.662V111.858H284.981V114.789H272.274V114.789ZM295.631 108.418V105.488H302.895V112.407C302.19 113.122 301.166 113.748 299.824 114.293C298.485 114.834 297.126 115.104 295.748 115.104C294 115.104 292.478 114.725 291.178 113.962C289.882 113.198 288.904 112.105 288.25 110.688C287.596 109.271 287.269 107.725 287.269 106.057C287.269 104.248 287.635 102.642 288.363 101.233C289.095 99.828 290.162 98.7457 291.567 97.9949C292.641 97.4182 293.972 97.1309 295.568 97.1309C297.643 97.1309 299.267 97.5832 300.434 98.4879C301.599 99.3961 302.35 100.644 302.684 102.242L299.322 102.896C299.088 102.044 298.644 101.37 297.994 100.873C297.348 100.381 296.538 100.135 295.565 100.135C294.093 100.135 292.922 100.619 292.054 101.592C291.185 102.565 290.749 104.006 290.749 105.916C290.749 107.979 291.189 109.525 292.069 110.555C292.953 111.584 294.105 112.1 295.533 112.1C296.238 112.1 296.947 111.955 297.655 111.669C298.367 111.382 298.974 111.031 299.484 110.619V108.418H295.631V108.418ZM305.904 114.789V97.4463H309.291V114.789H305.904ZM312.463 114.789V97.4463H317.535L320.533 109.275L323.495 97.4463H328.579V114.789H325.45L325.438 101.136L322.141 114.789H318.886L315.605 101.136L315.592 114.789H312.463ZM331.965 97.4463H338.654C339.981 97.4463 340.966 97.5025 341.615 97.6156C342.27 97.7329 342.85 97.971 343.364 98.3299C343.878 98.6937 344.306 99.1742 344.649 99.7754C344.992 100.377 345.162 101.055 345.162 101.802C345.162 102.61 344.952 103.356 344.532 104.031C344.112 104.708 343.54 105.213 342.819 105.553C343.835 105.863 344.614 106.388 345.162 107.131C345.707 107.874 345.979 108.746 345.979 109.751C345.979 110.543 345.805 111.31 345.451 112.056C345.097 112.803 344.614 113.401 343.998 113.849C343.387 114.293 342.632 114.567 341.733 114.672C341.172 114.733 339.813 114.773 337.661 114.789H331.965V97.4463V97.4463ZM335.353 100.328V104.325H337.564C338.876 104.325 339.693 104.305 340.012 104.264C340.588 104.196 341.044 103.99 341.375 103.647C341.706 103.304 341.869 102.855 341.869 102.298C341.869 101.762 341.725 101.33 341.441 100.995C341.156 100.66 340.733 100.457 340.172 100.389C339.837 100.349 338.876 100.328 337.291 100.328H335.353ZM335.353 107.208V111.858H338.483C339.697 111.858 340.472 111.822 340.798 111.754C341.3 111.657 341.709 111.426 342.025 111.059C342.34 110.688 342.5 110.199 342.5 109.582C342.5 109.057 342.379 108.617 342.134 108.253C341.893 107.89 341.538 107.623 341.078 107.458C340.62 107.293 339.619 107.208 338.081 107.208H335.353V107.208ZM363.898 114.789H360.25L358.807 110.841H352.1L350.71 114.789H347.129L353.622 97.4463H357.199L363.898 114.789ZM357.709 107.91L355.384 101.491L353.127 107.91H357.709ZM367.947 114.789V107.491L361.815 97.4463H365.774L369.73 104.313L373.579 97.4463H377.464L371.333 107.514V114.789H367.947ZM379.134 114.789V97.4463H391.512V100.377H382.521V104.229H390.882V107.159H382.521V111.858H391.839V114.789H379.134V114.789ZM398.99 114.789L393.007 97.4463H396.667L400.914 110.284L404.989 97.4463H408.586L402.638 114.789H398.99ZM423.623 114.789H419.976L418.532 110.841H411.825L410.436 114.789H406.854L413.347 97.4463H416.925L423.623 114.789ZM417.435 107.91L415.11 101.491L412.853 107.91H417.435ZM431.047 114.789V97.4463H443.425V100.377H434.434V104.229H442.795V107.159H434.434V111.858H443.752V114.789H431.047V114.789ZM451.017 114.789V107.491L444.885 97.4463H448.844L452.8 104.313L456.649 97.4463H460.534L454.403 107.514V114.789H451.017V114.789ZM462.204 114.789V97.4463H474.582V100.377H465.591V104.229H473.952V107.159H465.591V111.858H474.909V114.789H462.204V114.789ZM494.969 108.395L498.238 109.436C497.736 111.345 496.899 112.763 495.731 113.691C494.564 114.616 493.085 115.08 491.29 115.08C489.067 115.08 487.242 114.293 485.809 112.719C484.38 111.144 483.664 108.992 483.664 106.259C483.664 103.372 484.384 101.128 485.821 99.5289C487.258 97.9302 489.149 97.1309 491.492 97.1309C493.54 97.1309 495.202 97.761 496.479 99.0169C497.242 99.7593 497.81 100.825 498.192 102.218L494.852 103.042C494.653 102.145 494.241 101.434 493.614 100.914C492.983 100.393 492.221 100.135 491.325 100.135C490.083 100.135 489.075 100.595 488.305 101.519C487.53 102.44 487.144 103.934 487.144 106.001C487.144 108.189 487.525 109.751 488.285 110.68C489.048 111.612 490.036 112.077 491.254 112.077C492.154 112.077 492.929 111.782 493.575 111.188C494.221 110.595 494.688 109.666 494.969 108.395V108.395ZM501.139 114.789V97.4463H513.517V100.377H504.526V104.229H512.887V107.159H504.526V111.858H513.844V114.789H501.139V114.789ZM516.717 114.789V97.4463H519.995L526.877 109.069V97.4463H530.006V114.789H526.625L519.847 103.389V114.789H516.717ZM537.344 114.789V100.377H532.393V97.4463H545.659V100.377H540.731V114.789H537.344V114.789ZM547.851 114.789V97.4463H560.23V100.377H551.238V104.229H559.6V107.159H551.238V111.858H560.558V114.789H547.851ZM563.43 114.789V97.4463H570.542C572.329 97.4463 573.629 97.6036 574.439 97.9141C575.252 98.2252 575.899 98.778 576.385 99.5739C576.872 100.373 577.117 101.281 577.117 102.307C577.117 103.611 576.751 104.685 576.015 105.532C575.279 106.38 574.182 106.913 572.718 107.135C573.446 107.575 574.046 108.06 574.517 108.588C574.991 109.117 575.63 110.058 576.431 111.407L578.472 114.789H574.435L572.014 111.003C571.145 109.658 570.55 108.81 570.227 108.459C569.908 108.112 569.568 107.87 569.211 107.741C568.848 107.611 568.281 107.547 567.501 107.547H566.817V114.789H563.43V114.789ZM566.817 104.786H569.316C570.935 104.786 571.943 104.713 572.348 104.571C572.75 104.43 573.068 104.184 573.294 103.837C573.524 103.49 573.637 103.054 573.637 102.533C573.637 101.947 573.484 101.479 573.185 101.116C572.885 100.757 572.462 100.53 571.916 100.438C571.64 100.397 570.818 100.377 569.452 100.377H566.817V104.786V104.786Z" fill="#D9D9DA"/>
<defs>
<linearGradient id="paint0_linear" x1="67.9026" y1="29.9104" x2="124.293" y2="29.9104" gradientUnits="userSpaceOnUse">
<stop stop-color="#D6D6D6"/>
<stop offset="0.05"/>
<stop offset="0.12" stop-color="white"/>
<stop offset="1" stop-color="white"/>
</linearGradient>
</defs>
</svg>
