<svg xmlns="http://www.w3.org/2000/svg" xmlns:xlink="http://www.w3.org/1999/xlink" viewBox="0 0 1174.67 361.66"><defs><style>.cls-1{fill:#2d2d2d;}.cls-2{fill:url(#Новый_образец_градиента_1);}</style><linearGradient id="Новый_образец_градиента_1" y1="180.83" x2="733.89" y2="180.83" gradientUnits="userSpaceOnUse"><stop offset="0" stop-color="#ff7488"/><stop offset="0.3" stop-color="#ff077d"/><stop offset="1" stop-color="#7c12aa"/></linearGradient></defs><title>Ресурс 29</title><g id="Layer_2" data-name="Layer 2"><g id="Слой_1" data-name="Слой 1"><path class="cls-1" d="M587.55,224H574.74L546.4,148.09V224h-29V111.49H557.7l23.45,63.75,23.61-63.75h40.31V224h-29V148.09Z"/><path class="cls-1" d="M710.22,215.55a28,28,0,0,1-10.63,7.25,37.16,37.16,0,0,1-14.67,2.7,31.23,31.23,0,0,1-13.16-3A28.05,28.05,0,0,1,661,213.36c-2.87-3.88-4.22-8.77-4.22-14.67,0-8.94,2.87-15.52,8.44-19.57a32.1,32.1,0,0,1,19.56-6.07,43.32,43.32,0,0,1,15.18,2.53,22.53,22.53,0,0,1,10.29,7.08V172.37a10.41,10.41,0,0,0-4.39-8.6c-2.86-2.19-6.91-3.2-12.14-3.2a34.92,34.92,0,0,0-23.11,8.77L661.31,153a47.47,47.47,0,0,1,17.2-9.45,66.94,66.94,0,0,1,19.73-3q16.69,0,27.33,7.59c7.08,5.06,10.62,13.32,10.62,25V224h-26v-8.43Zm0-20.41a12.74,12.74,0,0,0-6.07-4.21,24.15,24.15,0,0,0-8.61-1.52,16.18,16.18,0,0,0-9.27,2.53,8.61,8.61,0,0,0,0,14.16,16.18,16.18,0,0,0,9.27,2.54,24.37,24.37,0,0,0,8.61-1.52,14.92,14.92,0,0,0,6.07-4.39v-7.59Z"/><path class="cls-1" d="M778.24,224h-26V142.52h64.6v22.6H778.24Z"/><path class="cls-1" d="M873.32,215.55a28.08,28.08,0,0,1-10.62,7.25A37.25,37.25,0,0,1,848,225.5a31.19,31.19,0,0,1-13.15-3,28,28,0,0,1-10.8-9.11c-2.86-3.88-4.21-8.77-4.21-14.67,0-8.94,2.87-15.52,8.43-19.57a32.15,32.15,0,0,1,19.57-6.07A43.3,43.3,0,0,1,863,175.58a22.48,22.48,0,0,1,10.29,7.08V172.37a10.43,10.43,0,0,0-4.38-8.6c-2.87-2.19-6.92-3.2-12.15-3.2a34.87,34.87,0,0,0-23.1,8.77L824.41,153a47.52,47.52,0,0,1,17.21-9.45,66.84,66.84,0,0,1,19.73-3q16.7,0,27.32,7.59c7.08,5.06,10.62,13.32,10.62,25V224h-26v-8.43Zm0-20.41a12.69,12.69,0,0,0-6.07-4.21,24.14,24.14,0,0,0-8.6-1.52,16.21,16.21,0,0,0-9.28,2.53,8.61,8.61,0,0,0,0,14.16,16.21,16.21,0,0,0,9.28,2.54,24.36,24.36,0,0,0,8.6-1.52,14.92,14.92,0,0,0,6.07-4.39v-7.59Z"/><path class="cls-1" d="M919.31,197.84a39.32,39.32,0,0,0,12.32,6.58,41.73,41.73,0,0,0,13.49,2.19c4.21,0,7.42-.67,9.44-2a6.27,6.27,0,0,0,3-5.4,6,6,0,0,0-3.37-5.57c-2.2-1.18-5.57-1.68-10.46-1.68H929.1V174.57h14.67c4.38,0,7.59-.68,9.44-1.86a6.07,6.07,0,0,0,2.87-5.4c0-2.19-1-3.71-3.2-4.89a18.83,18.83,0,0,0-8.77-1.85c-9.62,0-17.54,2.87-23.78,8.77L908,154.5c8.94-9.11,21.59-13.66,38.12-13.66,11.64,0,20.58,2,27,6.07s9.61,9.61,9.61,16.53q0,6.83-6.07,12.14A28.2,28.2,0,0,1,962,182.32a27.56,27.56,0,0,1,10.46,2.7,26.17,26.17,0,0,1,8.43,6.75,16,16,0,0,1,3.38,9.78,18.54,18.54,0,0,1-4.73,12.82q-4.8,5.56-13.66,8.6a64.11,64.11,0,0,1-20.74,3,65.56,65.56,0,0,1-22.26-3.54A42.37,42.37,0,0,1,907,213l12.15-15.68Z"/><path class="cls-1" d="M1022.09,142.52v44.86l29-44.86h26.14V224h-26v-47l-30.36,47H996.12V142.52Z"/><path class="cls-1" d="M1119.52,142.52v28h29.18v-28h26V224h-26V193.12h-29.18V224h-26V142.52Z"/><path class="cls-2" d="M720.28,262.72A169.68,169.68,0,0,1,692,300.17a168.78,168.78,0,0,1-222.44,14.28l-1.29-1,0,0-81.7-63.78,80.61-62.93c-.14-1.95-.24-3.92-.24-5.9h0a80.91,80.91,0,0,1,.59-9.65L376.72,242l-7.42,5.79-83.67,65.32,0,0,0,0-1.1.85-.54.43A168.77,168.77,0,0,1,12.06,180.83,168.77,168.77,0,0,1,283.93,47.21l.86.67.63.49L366.93,112,249.42,203.75A72.52,72.52,0,1,0,225,238v0L376.73,119.65l7.42-5.79L468,48.39l.56-.44,1-.74A168.78,168.78,0,0,1,692,61.49a169.45,169.45,0,0,1,28.31,37.45h13.61A180.86,180.86,0,0,0,462.16,37.67h0l-.37.29-1.24,1-83.81,65.42L292.84,38.86l-1-.79-.52-.41h0a180.83,180.83,0,1,0,0,286.32h0l.15-.12c.54-.42,1.08-.83,1.61-1.26l83.67-65.32,84.08,65.64.51.4.84.66h0a180.86,180.86,0,0,0,271.73-61.27ZM180.83,241.1a60.28,60.28,0,1,1,60.28-60.27A60.27,60.27,0,0,1,180.83,241.1Z"/></g></g></svg>