<svg width="90" height="90" viewBox="0 0 90 90" fill="none" xmlns="http://www.w3.org/2000/svg">
<path d="M0 45C0 20.1472 20.1472 0 45 0C69.8528 0 90 20.1472 90 45C90 69.8528 69.8528 90 45 90C20.1472 90 0 69.8528 0 45Z" fill="#27AE60"/>
<path d="M0 45C0 20.1472 20.1472 0 45 0C69.8528 0 90 20.1472 90 45C90 69.8528 69.8528 90 45 90C20.1472 90 0 69.8528 0 45Z" fill="url(#paint0_linear)"/>
<path d="M58.0333 47.8601C55.9196 47.8601 54.2 49.5797 54.2 51.6935C54.2 53.8071 55.9196 55.5268 58.0333 55.5268C60.147 55.5268 61.8667 53.8072 61.8667 51.6935C61.8666 49.5798 60.147 47.8601 58.0333 47.8601ZM58.0333 53.9935C56.7653 53.9935 55.7333 52.9615 55.7333 51.6935C55.7333 50.4254 56.7653 49.3935 58.0333 49.3935C59.3014 49.3935 60.3333 50.4254 60.3333 51.6935C60.3333 52.9615 59.3014 53.9935 58.0333 53.9935Z" fill="white"/>
<path d="M31.9667 47.8601C29.853 47.8601 28.1333 49.5797 28.1333 51.6935C28.1333 53.8071 29.8529 55.5268 31.9667 55.5268C34.0803 55.5268 35.8 53.8072 35.8 51.6935C35.8 49.5798 34.0804 47.8601 31.9667 47.8601ZM31.9667 53.9935C30.6986 53.9935 29.6667 52.9615 29.6667 51.6935C29.6667 50.4254 30.6986 49.3935 31.9667 49.3935C33.2347 49.3935 34.2667 50.4254 34.2667 51.6935C34.2667 52.9615 33.2347 53.9935 31.9667 53.9935Z" fill="white"/>
<path d="M67.2334 47.8602V43.2602C67.2334 42.9298 67.0225 42.6369 66.7089 42.5326L62.3826 41.0906C60.7535 38.3314 58.514 35.7055 53.5652 34.8384C53.556 34.8369 53.5467 34.8354 53.5376 34.8338C44.3989 33.5704 37.5372 35.6319 33.132 40.9633C28.039 41.0369 22.7666 42.6431 22.7666 45.5602V47.8602C22.3435 47.8602 22 48.2037 22 48.6268V51.6935C22 52.1166 22.3435 52.4601 22.7666 52.4601H25.8333C26.2564 52.4601 26.5999 52.1166 26.5999 51.6935C26.5999 48.7341 29.0073 46.3268 31.9665 46.3268C34.9258 46.3268 37.3332 48.7342 37.3332 51.6935C37.3332 52.1166 37.6767 52.4601 38.0998 52.4601H51.8998C52.323 52.4601 52.6665 52.1166 52.6665 51.6935C52.6665 48.7341 55.0738 46.3268 58.0331 46.3268C60.9925 46.3268 63.3997 48.7342 63.3997 51.6935C63.3997 52.1166 63.7432 52.4601 64.1664 52.4601H67.233C67.6562 52.4601 67.9996 52.1166 67.9996 51.6935V48.6268C68 48.2037 67.6565 47.8602 67.2334 47.8602ZM57.3042 37.7831C58.6358 38.5996 59.628 39.6776 60.4889 40.9602H57.2743L57.3042 37.7831ZM48.0666 36.0068C49.7066 35.9846 51.4507 36.0942 53.3145 36.3518C54.2375 36.5143 55.0487 36.7451 55.7785 37.0318L55.741 40.9609H48.0666V36.0068ZM46.5334 36.072V40.961H35.2035C38.0456 38.0292 41.793 36.4093 46.5334 36.072ZM66.4666 50.9269H64.8911C64.5086 47.4815 61.5791 44.7936 58.0333 44.7936C54.4874 44.7936 51.558 47.4815 51.1754 50.9269H38.8245C38.4419 47.4815 35.5125 44.7936 31.9666 44.7936C28.4208 44.7936 25.4913 47.4815 25.1088 50.9269H23.5334V49.3936C23.9565 49.3936 24.3 49.0501 24.3 48.6269V46.3269H25.0666C25.4898 46.3269 25.8333 45.9835 25.8333 45.5603C25.8333 45.1371 25.4898 44.7937 25.0666 44.7937H24.6695C25.7069 43.6675 28.8801 42.4937 33.5 42.4937H61.7417L65.7 43.8131V44.7937H64.9334C64.5102 44.7937 64.1667 45.1371 64.1667 45.5603C64.1667 45.9835 64.5102 46.3269 64.9334 46.3269H65.7V48.6269C65.7 49.0501 66.0435 49.3936 66.4666 49.3936V50.9269Z" fill="white"/>
<defs>
<linearGradient id="paint0_linear" x1="98" y1="108" x2="-11.5" y2="5.5107e-06" gradientUnits="userSpaceOnUse">
<stop stop-color="#27AE60"/>
<stop offset="0.910644" stop-color="#67C48E"/>
</linearGradient>
</defs>
</svg>
