<svg width="90" height="90" viewBox="0 0 90 90" fill="none" xmlns="http://www.w3.org/2000/svg">
<path d="M0 45C0 20.1472 20.1472 0 45 0C69.8528 0 90 20.1472 90 45C90 69.8528 69.8528 90 45 90C20.1472 90 0 69.8528 0 45Z" fill="#27AE60"/>
<path d="M0 45C0 20.1472 20.1472 0 45 0C69.8528 0 90 20.1472 90 45C90 69.8528 69.8528 90 45 90C20.1472 90 0 69.8528 0 45Z" fill="url(#paint0_linear)"/>
<g clip-path="url(#clip0)">
<path d="M62.7066 50.9593C61.8188 47.8137 60.3089 47.0937 59.0996 46.4506C57.8903 45.8284 56.9256 45.3181 56.5062 42.4311H58.0371C58.4231 42.4311 58.7361 42.1181 58.7361 41.7321V35.0563C58.6662 32.5328 55.3877 29.9883 55.0102 29.7017C54.7014 29.4682 54.2617 29.5292 54.0281 29.838C53.7945 30.1469 53.8555 30.5866 54.1644 30.8202C55.0312 31.4773 57.2891 33.5184 57.331 35.0773V35.2101L53.011 37.482C52.7787 37.6024 52.633 37.8424 52.6335 38.1041V41.7251C52.6335 42.1111 52.9465 42.4241 53.3326 42.4241H55.0871C55.5904 46.1989 57.0374 46.9608 58.4425 47.6878C59.5679 48.268 60.6305 48.8203 61.3505 51.3647C62.0006 53.6506 61.2246 54.9228 60.4627 55.5589C59.266 56.5388 57.6272 56.7806 56.1986 56.1881C55.0692 55.7226 54.3399 54.6133 54.3601 53.3919C54.1924 48.5826 52.6196 47.1915 51.6689 46.7861V32.7425C51.6689 29.0866 49.1104 27.7864 46.7127 27.7864H35.3604C32.9627 27.7864 30.4043 29.0866 30.4043 32.7425V60.8157H27.699C27.313 60.8157 27 61.1287 27 61.5147C27 61.9007 27.313 62.2137 27.699 62.2137H54.3881C54.7741 62.2137 55.0871 61.9007 55.0871 61.5147C55.0871 61.1287 54.7741 60.8157 54.3881 60.8157H51.6828V48.5756C52.2211 49.1908 52.8782 50.5329 52.9761 53.4688C52.9805 55.223 54.0353 56.8038 55.6534 57.4813C56.3317 57.7705 57.062 57.918 57.7994 57.9147C59.113 57.9265 60.3876 57.4677 61.3924 56.6215C62.2662 55.8595 63.5944 54.105 62.7066 50.9593ZM54.0386 41.033V38.5305L57.331 36.7969V41.033H54.0386ZM50.2848 60.8157H31.8024V32.7425C31.8024 29.6458 34.0323 29.1844 35.3604 29.1844H46.7267C48.0549 29.1844 50.2848 29.6458 50.2848 32.7425V60.8157Z" fill="white"/>
<path d="M46.3981 31.582H35.689C34.8451 31.5859 34.1619 32.269 34.1581 33.1129V38.9708C34.1619 39.8147 34.8451 40.4978 35.689 40.5017H46.3981C47.242 40.4978 47.9252 39.8147 47.929 38.9708V33.1129C47.9252 32.269 47.242 31.5859 46.3981 31.582ZM46.531 38.9708C46.531 39.0441 46.4715 39.1036 46.3981 39.1036H35.689C35.6157 39.1036 35.5561 39.0441 35.5561 38.9708V33.1129C35.5561 33.0396 35.6157 32.9801 35.689 32.9801H46.3981C46.4715 32.9801 46.531 33.0396 46.531 33.1129V38.9708Z" fill="white"/>
</g>
<defs>
<linearGradient id="paint0_linear" x1="98" y1="108" x2="-11.5" y2="5.5107e-06" gradientUnits="userSpaceOnUse">
<stop stop-color="#27AE60"/>
<stop offset="0.910644" stop-color="#67C48E"/>
</linearGradient>
<clipPath id="clip0">
<path d="M27 27H63V63H27V27Z" fill="white"/>
</clipPath>
</defs>
</svg>
