<svg width="90" height="90" viewBox="0 0 90 90" fill="none" xmlns="http://www.w3.org/2000/svg">
<path d="M0 45C0 20.1472 20.1472 0 45 0C69.8528 0 90 20.1472 90 45C90 69.8528 69.8528 90 45 90C20.1472 90 0 69.8528 0 45Z" fill="#27AE60"/>
<path d="M0 45C0 20.1472 20.1472 0 45 0C69.8528 0 90 20.1472 90 45C90 69.8528 69.8528 90 45 90C20.1472 90 0 69.8528 0 45Z" fill="url(#paint0_linear)"/>
<g clip-path="url(#clip0)">
<path d="M45 35.2266C39.5722 35.2266 35.1562 39.6425 35.1562 45.0703C35.1562 50.4981 39.5722 54.9141 45 54.9141C50.4278 54.9141 54.8438 50.4981 54.8438 45.0703C54.8438 39.6425 50.4278 35.2266 45 35.2266ZM45 53.5078C40.3476 53.5078 36.5625 49.7227 36.5625 45.0703C36.5625 40.4179 40.3476 36.6328 45 36.6328C49.6524 36.6328 53.4375 40.4179 53.4375 45.0703C53.4375 49.7227 49.6524 53.5078 45 53.5078Z" fill="white"/>
<path d="M62.2969 51.1724V27.7031C62.2969 27.4024 62.1057 27.1351 61.8212 27.0379C61.5369 26.9407 61.2219 27.0352 61.0378 27.2727C59.0801 29.8015 57.6944 32.7415 56.9828 35.8525C56.5865 35.3392 56.1558 34.847 55.6894 34.3809C52.8344 31.5258 49.038 29.9531 45 29.9531C40.962 29.9531 37.1659 31.5255 34.3106 34.3809C34.2155 34.4759 34.1233 34.5726 34.0312 34.6698V27.7031C34.0312 27.3148 33.7165 27 33.3281 27C32.9398 27 32.625 27.3148 32.625 27.7031V36.1406H31.2188V27.7031C31.2188 27.3148 30.904 27 30.5156 27C30.1273 27 29.8125 27.3148 29.8125 27.7031V36.1406H28.4062V27.7031C28.4062 27.3148 28.0915 27 27.7031 27C27.3148 27 27 27.3148 27 27.7031V36.8438C27 37.9531 27.5298 38.996 28.4062 39.6554V51.1724C27.9792 55.0934 27.7031 59.5264 27.7031 60.1875C27.7031 61.7382 28.9649 63 30.5156 63C32.0663 63 33.3281 61.7382 33.3281 60.1875C33.3281 59.6926 33.1735 57.0833 32.9164 54.1574C33.3399 54.7185 33.8047 55.2541 34.3106 55.76C37.1659 58.6151 40.962 60.1875 45 60.1875C49.038 60.1875 52.8344 58.6151 55.6894 55.7597C56.542 54.9075 57.2794 53.9706 57.8955 52.9689C57.5741 56.3464 57.375 59.6264 57.375 60.1875C57.375 61.7382 58.6368 63 60.1875 63C61.7382 63 63 61.7382 63 60.1875C63 59.5264 62.724 55.0934 62.2969 51.1724V51.1724ZM59.4844 46.3359H60.8906V47.7422H59.4844V46.3359ZM58.0836 37.5661C58.5058 34.8687 59.4657 32.2754 60.8906 29.9556V44.9297H59.0727L58.0784 43.9357L58.0836 37.5661ZM29.8125 46.3359H31.2188V47.7422H29.8125V46.3359ZM32.5033 37.5469C32.3377 38.013 32.01 38.4156 31.5698 38.6705C31.3525 38.796 31.2188 39.0281 31.2188 39.2789V44.9297H29.8125V39.2791C29.8125 39.0281 29.6787 38.796 29.4615 38.6705C29.0212 38.4156 28.6938 38.013 28.5279 37.5469H32.5033ZM30.5156 61.5938C29.7403 61.5938 29.1094 60.9629 29.1094 60.1875C29.1094 59.6516 29.8125 51.2361 29.8125 51.2106V49.1484H31.2188V51.2106C31.2188 51.2361 31.9219 59.6516 31.9219 60.1875C31.9219 60.9631 31.291 61.5938 30.5156 61.5938ZM45 58.7812C39.5511 58.7812 34.8346 55.5862 32.625 50.9713V39.6554C33.4987 38.9982 34.0274 37.9597 34.031 36.8545C36.5342 33.5204 40.5192 31.3594 45 31.3594C49.9301 31.3594 54.2604 33.9752 56.6771 37.8916L56.6719 44.226C56.6719 44.4128 56.7458 44.5919 56.8779 44.724L58.0781 45.9242V49.1885C56.3255 54.7427 51.126 58.7812 45 58.7812V58.7812ZM60.1875 61.5938C59.4121 61.5938 58.7812 60.9629 58.7812 60.1875C58.7812 59.6516 59.4844 51.2361 59.4844 51.2106V49.1484H60.8906V51.2106C60.8906 51.2361 61.5938 59.6516 61.5938 60.1875C61.5938 60.9631 60.9629 61.5938 60.1875 61.5938Z" fill="white"/>
<path d="M45.0901 50.6947C44.9022 50.6974 44.7264 50.7732 44.5957 50.9083C44.465 51.0435 44.3947 51.2203 44.398 51.4082C44.401 51.5944 44.4754 51.7683 44.6075 51.899C44.7399 52.0289 44.9149 52.1009 45.1005 52.1009H45.1118C45.4991 52.0943 45.81 51.7743 45.8037 51.3865C45.8009 51.2008 45.7262 51.0264 45.5941 50.8963C45.4592 50.7633 45.2771 50.6919 45.0901 50.6947V50.6947Z" fill="white"/>
<path d="M50.625 45.0703C50.6258 47.2206 49.4275 49.1526 47.4983 50.1117C47.3302 50.1954 47.2041 50.3396 47.1445 50.5173C47.0846 50.6953 47.0976 50.8859 47.181 51.054C47.3005 51.2952 47.5425 51.4449 47.8111 51.4449C47.9202 51.4449 48.0256 51.4201 48.1234 51.371C49.2786 50.798 50.2545 49.9178 50.9455 48.8252C51.6558 47.7029 52.0312 46.4049 52.0312 45.0703C52.0312 44.683 51.7157 44.3672 51.3281 44.3672C50.9408 44.3672 50.625 44.683 50.625 45.0703Z" fill="white"/>
</g>
<defs>
<linearGradient id="paint0_linear" x1="98" y1="108" x2="-11.5" y2="5.5107e-06" gradientUnits="userSpaceOnUse">
<stop stop-color="#27AE60"/>
<stop offset="0.910644" stop-color="#67C48E"/>
</linearGradient>
<clipPath id="clip0">
<rect x="27" y="27" width="36" height="36" fill="white"/>
</clipPath>
</defs>
</svg>
