<svg width="90" height="90" viewBox="0 0 90 90" fill="none" xmlns="http://www.w3.org/2000/svg">
<path d="M0 45C0 20.1472 20.1472 0 45 0C69.8528 0 90 20.1472 90 45C90 69.8528 69.8528 90 45 90C20.1472 90 0 69.8528 0 45Z" fill="#27AE60"/>
<path d="M0 45C0 20.1472 20.1472 0 45 0C69.8528 0 90 20.1472 90 45C90 69.8528 69.8528 90 45 90C20.1472 90 0 69.8528 0 45Z" fill="url(#paint0_linear)"/>
<path d="M62.8709 59.6391L58.0361 44.1925C58.5697 43.8943 58.9349 43.3309 58.9349 42.6777C58.9349 41.9689 58.5073 41.3596 57.8983 41.088L59.3598 35.2417C59.463 34.8298 59.5155 34.4059 59.5155 33.9804V33.4888C59.5155 32.0678 58.5209 30.8799 57.193 30.5697V27.0006H56.0317V30.5241C54.9986 30.6888 54.1203 31.3769 53.7219 32.3732L53.7092 32.4058L53.6964 32.3732C53.2981 31.3769 52.4195 30.6888 51.3866 30.5241V27.0006H50.2254V30.5692C48.8974 30.8799 47.9028 32.0672 47.9028 33.4882C47.9028 34.2384 47.995 34.9886 48.1776 35.7178L49.5197 41.088C48.9107 41.3596 48.4835 41.9689 48.4835 42.6777C48.4835 43.3309 48.8486 43.8943 49.3822 44.1925L44.5472 59.6391C44.2263 60.6651 44.5154 61.7708 45.3027 62.525C45.3078 62.5301 45.3138 62.5355 45.3195 62.54C45.6452 62.8448 46.0691 62.9976 46.4929 62.9976C46.9233 62.9976 47.3534 62.8403 47.6808 62.5261L47.9116 62.3055C48.1206 62.1045 48.473 62.1051 48.6819 62.305L48.9124 62.5261C49.5679 63.1544 50.6348 63.1544 51.2902 62.5261L51.5202 62.3055C51.7291 62.1045 52.0815 62.1051 52.2908 62.305L52.5212 62.5261C53.1767 63.1544 54.2427 63.1544 54.8982 62.5261L55.1287 62.305C55.3371 62.1051 55.6903 62.1051 55.8987 62.305L56.1292 62.5261C56.7841 63.1555 57.8507 63.1544 58.5062 62.5261L58.7367 62.3055C58.9459 62.1045 59.2983 62.1051 59.5073 62.305L59.7378 62.5261C60.3881 63.1493 61.4425 63.1538 62.0986 62.5411C62.1045 62.5355 62.1108 62.5301 62.1161 62.525C62.9029 61.7708 63.1926 60.6651 62.8709 59.6391V59.6391ZM50.2254 43.2583C49.9053 43.2583 49.6447 42.9984 49.6447 42.6777C49.6447 42.3573 49.9053 42.0971 50.2254 42.0971H57.193C57.5128 42.0971 57.7736 42.3573 57.7736 42.6777C57.7736 42.9984 57.5128 43.2583 57.193 43.2583H50.2254ZM49.0641 33.4888C49.0641 32.4727 49.8908 31.6457 50.9069 31.6457C51.6653 31.6457 52.3364 32.1004 52.6182 32.8041L53.1702 34.1837C53.2587 34.4042 53.4716 34.5488 53.7092 34.5488C53.9465 34.5488 54.1597 34.4042 54.2478 34.1837L54.8001 32.8041C55.0816 32.1004 55.7536 31.6457 56.5111 31.6457C57.5272 31.6457 58.3542 32.4727 58.3542 33.4888V33.9804C58.3542 34.311 58.3134 34.6407 58.2334 34.9605L56.7393 40.9358H50.6787L49.304 35.4368C49.1446 34.7997 49.0641 34.1443 49.0641 33.4888V33.4888ZM47.1079 61.4664L46.8768 61.6878C46.6679 61.8879 46.316 61.8879 46.1074 61.6878C46.1034 61.6835 46.0988 61.6796 46.0946 61.6756C45.6364 61.2285 45.4683 60.5826 45.6552 59.9859L50.5273 44.4196H51.2588L47.9354 61.0363C47.6321 61.1001 47.3437 61.2412 47.1079 61.4664V61.4664ZM50.7158 61.4664L50.4859 61.6878C50.277 61.8874 49.9246 61.8874 49.7162 61.6878L49.4851 61.4658C49.366 61.3521 49.2302 61.2656 49.0885 61.193L52.4433 44.4196H53.1285V61.5001L53.0931 61.4664C52.4387 60.8384 51.3722 60.8384 50.7158 61.4664V61.4664ZM57.7021 61.6878C57.4938 61.8885 57.1419 61.8874 56.9327 61.6878L56.7016 61.4658C56.0462 60.8389 54.9801 60.8384 54.3252 61.4664L54.2898 61.5001V44.4196H54.9748L58.3298 61.1936C58.1881 61.2662 58.0523 61.3527 57.9332 61.4672L57.7021 61.6878ZM61.324 61.6756C61.3195 61.6796 61.3149 61.6841 61.3107 61.6878C61.1017 61.8868 60.7493 61.8868 60.5415 61.6878L60.3105 61.4658C60.0751 61.2407 59.786 61.0995 59.4829 61.0363L56.1593 44.4196H56.891L61.7632 59.9864C61.9494 60.5826 61.7816 61.2285 61.324 61.6756V61.6756Z" fill="white"/>
<path d="M46.6185 41.293C46.7282 41.1524 46.7676 40.9684 46.7239 40.7955L44.4014 31.5053C44.3575 31.3287 44.2339 31.1835 44.0672 31.1121L40.3546 29.5213V27.5812C40.3546 27.2603 40.0943 27.0006 39.7739 27.0006H33.9676C33.6469 27.0006 33.387 27.2603 33.387 27.5812V29.5213L29.6744 31.1121C29.5077 31.1835 29.384 31.3287 29.3398 31.5053L27.0173 40.7955C26.9739 40.969 27.0133 41.1524 27.123 41.293C27.2327 41.4339 27.4017 41.5164 27.5806 41.5164H30.4838C30.7398 41.5164 30.9663 41.348 31.04 41.1025L31.86 38.37L32.2274 43.8772C32.2472 44.1829 32.501 44.4196 32.8063 44.4196H40.9352C41.2405 44.4196 41.4943 44.1829 41.5147 43.8772L41.8821 38.37L42.702 41.1025C42.7752 41.348 43.0017 41.5164 43.2577 41.5164H46.1609C46.3398 41.5164 46.5088 41.4339 46.6185 41.293ZM36.8708 36.306L34.7915 30.4844H38.95L36.8708 36.306ZM34.5482 28.1619H39.1933V29.3231H34.5482V28.1619ZM30.0517 40.3552H28.3243L30.3967 32.0661L30.7083 31.9331L31.6207 35.1261L30.0517 40.3552ZM32.8052 35.0912C32.8029 35.0506 32.7953 35.0098 32.7842 34.9704L31.7843 31.471L33.6285 30.6806L36.2901 38.1333V43.2583H33.3498L32.8052 35.0912ZM40.3917 43.2583H37.4514V38.1333L40.113 30.6806L41.957 31.471L40.9573 34.9698L40.9652 34.9721C40.9542 35.011 40.9386 35.0489 40.9363 35.0906L40.3917 43.2583ZM43.6898 40.3552L42.1208 35.1255L43.0329 31.9326L43.3448 32.0661L45.417 40.3552H43.6898Z" fill="white"/>
<path d="M40.9352 45.5809H32.8063C32.4857 45.5809 32.2257 45.8406 32.2257 46.1615V62.4193C32.2257 62.7405 32.4857 62.9999 32.8063 62.9999H35.1289C35.4144 62.9999 35.6579 62.7921 35.7024 62.51L36.8708 55.1103L38.0388 62.51C38.0836 62.7921 38.3269 62.9999 38.6127 62.9999H40.9352C41.2556 62.9999 41.5158 62.7405 41.5158 62.4193V46.1615C41.5158 45.8406 41.2556 45.5809 40.9352 45.5809ZM40.3546 61.8386H39.1085L37.4438 51.2968C37.3998 51.0144 37.1563 50.8066 36.8708 50.8066C36.585 50.8066 36.3417 51.0144 36.2969 51.2968L34.633 61.8386H33.387V46.7422H40.3546V61.8386Z" fill="white"/>
<defs>
<linearGradient id="paint0_linear" x1="98" y1="108" x2="-11.5" y2="5.5107e-06" gradientUnits="userSpaceOnUse">
<stop stop-color="#27AE60"/>
<stop offset="0.910644" stop-color="#67C48E"/>
</linearGradient>
</defs>
</svg>
