<svg width="300" height="300" viewBox="0 0 300 300" fill="none" xmlns="http://www.w3.org/2000/svg">
<path d="M0 150C0 67.1573 67.1573 0 150 0C232.843 0 300 67.1573 300 150C300 232.843 232.843 300 150 300C67.1573 300 0 232.843 0 150Z" fill="#27AE60"/>
<path d="M0 150C0 67.1573 67.1573 0 150 0C232.843 0 300 67.1573 300 150C300 232.843 232.843 300 150 300C67.1573 300 0 232.843 0 150Z" fill="url(#paint0_linear)"/>
<path d="M185.391 139.453H156.278L181.415 95.2533C182.034 94.1657 182.027 92.8299 181.398 91.7477C180.769 90.6656 179.611 90 178.359 90H136.172C134.658 90 133.313 90.9705 132.836 92.4078L111.742 155.923C111.386 156.995 111.566 158.172 112.227 159.089C112.888 160.004 113.948 160.547 115.078 160.547H144.912L125.907 205.105C125.23 206.691 125.804 208.533 127.261 209.455C128.719 210.377 130.629 210.105 131.773 208.815L188.023 145.3C190.026 143.037 188.416 139.453 185.391 139.453V139.453ZM140.878 187.929L153.468 158.411C154.455 156.097 152.756 153.516 150.234 153.516H119.95L138.709 97.0313H172.315L147.178 141.23C145.849 143.568 147.538 146.484 150.234 146.484H177.581L140.878 187.929Z" fill="white"/>
<defs>
<linearGradient id="paint0_linear" x1="326.667" y1="360" x2="-38.3333" y2="1.8369e-05" gradientUnits="userSpaceOnUse">
<stop stop-color="#27AE60"/>
<stop offset="0.910644" stop-color="#67C48E"/>
</linearGradient>
</defs>
</svg>
