<svg width="300" height="300" viewBox="0 0 300 300" fill="none" xmlns="http://www.w3.org/2000/svg">
<path d="M0 150C0 67.1573 67.1573 0 150 0C232.843 0 300 67.1573 300 150C300 232.843 232.843 300 150 300C67.1573 300 0 232.843 0 150Z" fill="#27AE60"/>
<path d="M0 150C0 67.1573 67.1573 0 150 0C232.843 0 300 67.1573 300 150C300 232.843 232.843 300 150 300C67.1573 300 0 232.843 0 150Z" fill="url(#paint0_linear)"/>
<g clip-path="url(#clip0)">
<path d="M185.96 108.618L189.764 107.38L193.67 119.381L189.866 120.618L185.96 108.618Z" fill="white"/>
<path d="M180.098 122.62L183.901 121.382L187.809 133.381L184.005 134.62L180.098 122.62Z" fill="white"/>
<path d="M112.656 128.454C112.234 131.51 113.126 134.602 115.112 136.962L118 140.584V174H122V143.738L124.89 145.664C125.562 146.112 126.438 146.112 127.11 145.664L132 142.4L136.89 145.66C137.562 146.108 138.438 146.108 139.11 145.66L144 142.4L148.89 145.66C149.562 146.108 150.438 146.108 151.11 145.66L156 142.4L160.89 145.66C161.562 146.108 162.438 146.108 163.11 145.66L168 142.4L172 145.066V206H128V210H184C189.521 209.993 193.993 205.521 194 200V140C193.995 139.561 193.844 139.135 193.57 138.79L205.128 108.021C206.684 103.887 206.114 99.254 203.604 95.6202C201.22 92.0948 197.237 89.9874 192.982 90.0001C187.559 90.0508 182.728 93.4395 180.834 98.5225L177.698 106.87L174 103.172V96.0001C174 94.8956 173.104 94.0001 172 94.0001H150C148.896 94.0001 148 94.8956 148 96.0001V99.4317C145.739 97.3829 142.329 97.2667 139.934 99.1583V96.0001C139.934 92.7266 137.28 90.0723 134.006 90.0723C130.732 90.0723 128.078 92.7266 128.078 96.0001V99.1602C126.983 98.253 125.605 97.7569 124.184 97.7598C122.533 97.7559 120.951 98.4219 119.8 99.6065C117.428 102.051 117.413 105.934 119.766 108.397L121.628 110.318C120.95 110.629 120.335 111.061 119.812 111.592L119.8 111.6L119.78 111.62C119.314 112.099 118.929 112.649 118.64 113.252L116.36 109.042L112.842 110.946L118.014 120.492C117.782 120.624 117.55 120.752 117.33 120.902C117.248 120.958 117.176 121.023 117.096 121.078L109.356 113.946L106.645 116.888L114.332 123.976C113.449 125.326 112.877 126.856 112.656 128.454ZM154.89 138.336L150 141.6L145.11 138.34C144.438 137.892 143.562 137.892 142.89 138.34L138.046 141.57C138.034 141.37 138 141.196 138 141.004C137.987 136.608 141.16 132.85 145.495 132.125C149.831 131.399 154.054 133.921 155.472 138.082C155.266 138.136 155.069 138.221 154.89 138.336ZM160 140.264L159.962 140.238C159.722 136.034 157.457 132.208 153.887 129.975C150.317 127.741 145.886 127.378 142 129V116H160V140.264ZM190 200C190 203.314 187.313 206 184 206H176V145.07L180 142.4L184.89 145.66C185.562 146.108 186.438 146.108 187.11 145.66L190 143.738V200ZM184.578 99.9278C185.882 96.4024 189.224 94.046 192.982 94.0001C195.922 93.9942 198.671 95.4522 200.316 97.8878C202.082 100.445 202.48 103.706 201.384 106.614L189 139.6L186 141.6L181.11 138.34C180.438 137.892 179.562 137.892 178.89 138.34L174 141.6L169.942 138.895L184.578 99.9278ZM176.154 110.982L165.54 139.236L164 140.264V114.828L172 106.828L176.154 110.982ZM152 98.0001H170V102H152V98.0001ZM150.828 106H167.172L161.172 112H144.828L150.828 106ZM122.654 102.412C123.056 101.998 123.607 101.764 124.184 101.764C124.761 101.765 125.312 101.998 125.714 102.412L128.65 105.412C129.221 105.994 130.087 106.171 130.84 105.861C131.593 105.551 132.083 104.815 132.078 104V96.0001C132.046 95.2901 132.406 94.6202 133.016 94.2559C133.626 93.8907 134.387 93.8907 134.996 94.2559C135.606 94.6202 135.967 95.2901 135.934 96.0001V104C135.935 104.812 136.426 105.542 137.178 105.849C137.929 106.156 138.791 105.979 139.36 105.4L142.306 102.4C143.149 101.569 144.503 101.569 145.346 102.4C146.215 103.29 146.215 104.71 145.346 105.6L139.454 111.6L139.514 111.66L138.586 112.588C138.425 112.754 138.295 112.947 138.2 113.158C138.172 113.22 138.156 113.282 138.134 113.346C138.074 113.517 138.038 113.694 138.026 113.874C138.026 113.918 138.002 113.954 138.002 113.998V131.64C137.547 132.075 137.124 132.543 136.738 133.04L132.96 125C131.565 122.226 129.045 120.185 126.04 119.4C125.341 119.22 124.624 119.11 123.902 119.076L123.39 118.476C122.99 118.018 122.688 117.66 122.64 117.61C122.123 117.069 121.899 116.312 122.04 115.576C122.114 115.158 122.307 114.772 122.594 114.46L122.63 114.426L122.68 114.372C123.404 113.662 124.526 113.558 125.37 114.12C126.219 114.688 127.357 114.524 128.014 113.743C128.67 112.961 128.632 111.812 127.926 111.074L122.64 105.618C121.781 104.72 121.788 103.303 122.654 102.412ZM116.62 129C116.881 127.062 117.954 125.325 119.572 124.226C121.177 123.141 123.17 122.797 125.046 123.282C126.921 123.769 128.497 125.037 129.372 126.766L134.47 137.624C134.344 138.092 134.244 138.566 134.172 139.046L133.118 138.342C132.446 137.894 131.57 137.894 130.898 138.342L126 141.6L121.564 138.64L121.136 138.103L126.292 134.116L123.844 130.952L118.645 134.974L118.2 134.42C116.928 132.92 116.354 130.949 116.62 129Z" fill="white"/>
<path d="M98.2705 205.012C99.79 208.077 102.921 210.012 106.342 210C107.743 209.998 109.124 209.672 110.378 209.048L112 208.236L113.624 209.048C114.877 209.672 116.258 209.998 117.658 210C121.08 210.012 124.21 208.077 125.73 205.012L126.428 203.612C128.77 198.913 129.992 193.736 130 188.486C129.993 182.697 125.303 178.007 119.514 178C117.562 178.006 115.651 178.56 114 179.6V178C114 173.582 110.418 170 106 170V174C108.209 174 110 175.791 110 178V179.6C108.349 178.56 106.438 178.006 104.486 178C98.6973 178.007 94.0068 182.697 94 188.486C94.0068 193.737 95.2295 198.916 97.5723 203.616L98.2705 205.012ZM104.486 182C106.207 181.995 107.858 182.68 109.072 183.9L110.586 185.414C111.367 186.194 112.633 186.194 113.414 185.414L114.928 183.9C116.783 182.045 119.572 181.49 121.996 182.494C124.42 183.498 126 185.863 126 188.486C125.995 193.117 124.917 197.684 122.85 201.828L122.152 203.229C121.304 204.933 119.562 206.007 117.658 206C116.879 205.999 116.11 205.817 115.412 205.47L112.895 204.21C112.331 203.929 111.669 203.929 111.106 204.21L108.59 205.47C107.892 205.817 107.122 205.999 106.342 206C104.437 206.006 102.694 204.929 101.848 203.222L101.15 201.822C99.084 197.68 98.0059 193.115 98 188.486C98.0049 184.906 100.906 182.005 104.486 182V182Z" fill="white"/>
</g>
<defs>
<linearGradient id="paint0_linear" x1="326.667" y1="360" x2="-38.3333" y2="1.8369e-05" gradientUnits="userSpaceOnUse">
<stop stop-color="#27AE60"/>
<stop offset="0.910644" stop-color="#67C48E"/>
</linearGradient>
<clipPath id="clip0">
<rect x="90" y="90" width="120" height="120" fill="white"/>
</clipPath>
</defs>
</svg>
