<svg width="90" height="90" viewBox="0 0 90 90" fill="none" xmlns="http://www.w3.org/2000/svg">
<path d="M0 45C0 20.1472 20.1472 0 45 0C69.8528 0 90 20.1472 90 45C90 69.8528 69.8528 90 45 90C20.1472 90 0 69.8528 0 45Z" fill="#27AE60"/>
<path d="M0 45C0 20.1472 20.1472 0 45 0C69.8528 0 90 20.1472 90 45C90 69.8528 69.8528 90 45 90C20.1472 90 0 69.8528 0 45Z" fill="url(#paint0_linear)"/>
<g clip-path="url(#clip0)">
<path d="M45.2173 38.2882V36.7531H45.2973C45.6233 36.7531 45.8808 36.4536 45.8808 36.1279V30.6277C45.882 30.4725 45.8209 30.3233 45.7115 30.2136C45.6017 30.1039 45.4526 30.0428 45.2973 30.044H30.297C30.1441 30.0437 29.9975 30.1056 29.8912 30.2159C29.7852 30.3259 29.7285 30.4748 29.7345 30.6274V36.1276C29.7345 36.4533 29.9713 36.7529 30.297 36.7529H30.3981V38.2905C30.3981 38.2942 30.3773 38.2977 30.3699 38.3017C30.3411 38.3161 30.3097 38.3308 30.2811 38.3455C30.2449 38.3642 30.2068 38.3829 30.1706 38.4022C30.1418 38.4178 30.1124 38.4342 30.0836 38.4503C30.0487 38.4699 30.0136 38.4892 29.9793 38.5096C29.9502 38.5266 29.9217 38.5442 29.8932 38.5615C29.8595 38.5822 29.8261 38.6027 29.793 38.6237C29.7648 38.6421 29.7363 38.6605 29.7083 38.6793C29.6761 38.7009 29.6441 38.7225 29.6124 38.7444C29.5845 38.7642 29.5565 38.7838 29.5289 38.8034C29.4978 38.8259 29.4667 38.8486 29.4362 38.8717C29.4088 38.8921 29.3814 38.9128 29.3544 38.9339C29.3244 38.9572 29.2945 38.9811 29.2648 39.005C29.238 39.0266 29.2115 39.0482 29.1853 39.0701C29.1559 39.0946 29.1271 39.1196 29.0983 39.1447C29.0727 39.1671 29.0468 39.1896 29.0214 39.2124C28.9929 39.238 28.9653 39.2642 28.9371 39.2901C28.9123 39.3134 28.8872 39.3365 28.8628 39.3604C28.8354 39.3872 28.8083 39.4142 28.7813 39.4413C28.7574 39.4655 28.7335 39.4891 28.7098 39.5136C28.6831 39.5415 28.6568 39.57 28.6303 39.5986C28.6079 39.623 28.5848 39.6475 28.5627 39.6723C28.5359 39.7017 28.5103 39.7322 28.4843 39.7624C28.463 39.7869 28.4417 39.8111 28.421 39.8362C28.3939 39.8687 28.3677 39.9018 28.3415 39.9346C28.3228 39.9583 28.3035 39.9813 28.2853 40.0049C28.2528 40.0467 28.2214 40.0893 28.19 40.1319C28.1721 40.1564 28.1543 40.1806 28.1367 40.2051C28.1019 40.2543 28.067 40.3039 28.0336 40.354C28.0175 40.3779 28.0025 40.4024 27.9867 40.4265C27.9631 40.4631 27.9392 40.4994 27.9161 40.5366C27.8994 40.5636 27.8836 40.591 27.8672 40.6184C27.8464 40.6532 27.8254 40.6878 27.8052 40.7229C27.7888 40.7517 27.7733 40.7808 27.7571 40.8099C27.7381 40.8444 27.7191 40.8787 27.7007 40.913C27.6851 40.9429 27.6702 40.9732 27.6549 41.0034C27.6373 41.038 27.6198 41.0725 27.6031 41.1074C27.5884 41.1382 27.5743 41.169 27.5599 41.1998C27.5437 41.235 27.5276 41.2701 27.5121 41.3055C27.4982 41.3366 27.485 41.368 27.4717 41.3997C27.457 41.4351 27.4424 41.4708 27.4277 41.5068C27.415 41.5388 27.4026 41.5708 27.3908 41.6027C27.377 41.639 27.3634 41.675 27.3505 41.7116C27.339 41.7438 27.3277 41.7761 27.3168 41.8086C27.3041 41.8455 27.292 41.8824 27.2802 41.9192C27.2698 41.9518 27.2598 41.9846 27.25 42.0174C27.2387 42.0549 27.2278 42.0923 27.2174 42.1301C27.2082 42.1629 27.1993 42.1957 27.1906 42.2288C27.1806 42.2668 27.1714 42.3054 27.1619 42.3437C27.1541 42.3766 27.146 42.4094 27.1388 42.4425C27.1302 42.4817 27.1221 42.5209 27.114 42.5606C27.1074 42.5932 27.1008 42.626 27.0945 42.6588C27.0873 42.6991 27.0803 42.7395 27.0737 42.7801C27.0683 42.8123 27.0628 42.8446 27.0579 42.8771C27.0518 42.9186 27.0467 42.9606 27.0412 43.0024C27.0371 43.0341 27.0328 43.0655 27.0294 43.0971C27.0245 43.1412 27.0207 43.1856 27.0167 43.2296C27.0141 43.2593 27.0109 43.2887 27.0086 43.3186C27.0049 43.3682 27.0026 43.418 27.0003 43.4675C26.9988 43.4923 27.0049 43.5173 27.004 43.5421C27.0011 43.6167 27.0075 43.6919 27.0075 43.7667V56.6604C27.0066 58.4892 28.4869 59.9732 30.3157 59.9772H45.2806C47.1137 59.9744 48.6007 58.4917 48.6087 56.6586V43.7676C48.6119 42.556 48.2571 41.3706 47.5886 40.3603C47.0011 39.4669 46.1812 38.7507 45.2173 38.2882ZM30.9142 31.2236H44.7012V35.5735H30.9142V31.2236ZM47.4291 56.6569C47.4222 57.84 46.462 58.7962 45.2789 58.7976H30.3174C29.1381 58.7956 28.184 57.8377 28.1863 56.6586V43.7673C28.1851 42.7288 28.5097 41.7162 29.1145 40.8718C29.1842 40.7747 29.2536 40.6803 29.3302 40.5887C29.3685 40.5429 29.4056 40.4801 29.4454 40.4358C29.9327 39.8981 30.53 39.4718 31.197 39.1861H31.2022C31.4262 39.1164 31.5786 38.9088 31.5777 38.6741V36.7531H44.0376V38.6744C44.0368 38.9163 44.1839 39.1337 44.4089 39.223C46.2163 39.9367 47.4291 41.7631 47.4291 43.7676V56.6569Z" fill="white"/>
<path d="M43.8165 46.5589H40.2039V42.9463C40.2039 42.6205 39.9398 42.3564 39.6141 42.3564H36.0014C35.6757 42.3564 35.4116 42.6205 35.4116 42.9463V46.5589H31.8727C31.547 46.5589 31.2829 46.823 31.2829 47.1487V50.5402C31.2829 50.8659 31.547 51.13 31.8727 51.13H35.4116V54.7426C35.4116 55.0684 35.6757 55.3325 36.0014 55.3325H39.6141C39.9398 55.3325 40.2039 55.0684 40.2039 54.7426V51.13H43.8165C44.1422 51.13 44.4063 50.8659 44.4063 50.5402V47.1487C44.4063 46.823 44.1422 46.5589 43.8165 46.5589ZM43.2267 49.9504H39.6141C39.2883 49.9504 39.0242 50.2145 39.0242 50.5402V54.1528H36.5912V50.5402C36.5912 50.2145 36.3271 49.9504 36.0014 49.9504H32.4625V47.7385H36.0014C36.3271 47.7385 36.5912 47.4744 36.5912 47.1487V43.5361H39.0242V47.1487C39.0242 47.4744 39.2883 47.7385 39.6141 47.7385H43.2267V49.9504Z" fill="white"/>
<path d="M60.9436 50.4032L54.0176 47.864C52.4019 47.271 50.6106 48.0912 50.0032 49.7014C49.3961 51.3116 50.2002 53.1101 51.8049 53.7316C50.1529 53.9182 48.9341 55.3625 49.0286 57.0226C49.1228 58.6823 50.4974 59.9794 52.1597 59.9774H59.5368C60.6447 59.9791 61.6708 59.3954 62.2356 58.4421C62.8004 57.4891 62.8191 56.3083 62.2854 55.3375C62.9314 54.553 63.1569 53.5041 62.8902 52.5235C62.6235 51.5428 61.8978 50.7526 60.9436 50.4032ZM61.7011 54.021C61.651 54.1573 61.5856 54.2874 61.5067 54.4093C60.9497 53.9568 60.2542 53.71 59.5368 53.7106H56.4307L57.6282 50.4438L60.5376 51.5106C61.5513 51.8835 62.0717 53.0067 61.7011 54.021ZM51.163 51.6312C50.83 50.9133 50.9625 50.0657 51.4988 49.4834C52.0347 48.9013 52.8685 48.6991 53.6115 48.9716L56.5209 50.0383L55.487 52.8584C55.5981 52.5528 55.4412 52.2147 55.1359 52.103L52.7801 51.2393C52.5819 51.165 52.359 51.2027 52.1963 51.3381C52.0336 51.4734 51.9558 51.6857 51.9924 51.8942C52.0293 52.1027 52.175 52.2752 52.3743 52.3469L54.7298 53.2103C54.8764 53.2645 55.0385 53.2579 55.1805 53.1922C55.3225 53.1262 55.4322 53.007 55.4861 52.8601L55.1742 53.7106H55.1716L52.2645 52.645C51.7767 52.4679 51.3801 52.103 51.163 51.6312ZM50.2033 56.844C50.2048 55.7643 51.0803 54.8899 52.1597 54.8902H55.2442V57.894C55.2465 57.7411 55.1863 57.5939 55.078 57.4862C54.9694 57.3785 54.8217 57.3198 54.669 57.3232H52.1597C51.834 57.3232 51.5699 57.5873 51.5699 57.913C51.5699 58.2388 51.834 58.5029 52.1597 58.5029H54.669C54.9945 58.4936 55.2514 58.2232 55.2442 57.8975V58.7978H52.1597C51.0803 58.7978 50.2048 57.9234 50.2033 56.844ZM59.5368 58.7978H56.4238V54.8902H59.5368C60.6156 54.8902 61.4906 55.7649 61.4906 56.844C61.4906 57.9228 60.6156 58.7978 59.5368 58.7978Z" fill="white"/>
</g>
<defs>
<linearGradient id="paint0_linear" x1="98" y1="108" x2="-11.5" y2="5.5107e-06" gradientUnits="userSpaceOnUse">
<stop stop-color="#27AE60"/>
<stop offset="0.910644" stop-color="#67C48E"/>
</linearGradient>
<clipPath id="clip0">
<path d="M27 27H63V63H27V27Z" fill="white"/>
</clipPath>
</defs>
</svg>
