<svg width="90" height="90" viewBox="0 0 90 90" fill="none" xmlns="http://www.w3.org/2000/svg">
<path d="M0 45C0 20.1472 20.1472 0 45 0C69.8528 0 90 20.1472 90 45C90 69.8528 69.8528 90 45 90C20.1472 90 0 69.8528 0 45Z" fill="#27AE60"/>
<path d="M0 45C0 20.1472 20.1472 0 45 0C69.8528 0 90 20.1472 90 45C90 69.8528 69.8528 90 45 90C20.1472 90 0 69.8528 0 45Z" fill="url(#paint0_linear)"/>
<circle cx="31" cy="45" r="4" fill="white"/>
<circle cx="45" cy="45" r="4" fill="white"/>
<circle cx="59" cy="45" r="4" fill="white"/>
<defs>
<linearGradient id="paint0_linear" x1="98" y1="108" x2="-11.5" y2="5.5107e-06" gradientUnits="userSpaceOnUse">
<stop stop-color="#27AE60"/>
<stop offset="0.910644" stop-color="#67C48E"/>
</linearGradient>
</defs>
</svg>
