<svg width="90" height="90" viewBox="0 0 90 90" fill="none" xmlns="http://www.w3.org/2000/svg">
<path d="M0 45C0 20.1472 20.1472 0 45 0C69.8528 0 90 20.1472 90 45C90 69.8528 69.8528 90 45 90C20.1472 90 0 69.8528 0 45Z" fill="#27AE60"/>
<path d="M0 45C0 20.1472 20.1472 0 45 0C69.8528 0 90 20.1472 90 45C90 69.8528 69.8528 90 45 90C20.1472 90 0 69.8528 0 45Z" fill="url(#paint0_linear)"/>
<g clip-path="url(#clip0)">
<path d="M33.3002 60.7622C33.3002 61.1622 33.6245 61.4866 34.0245 61.4866H35.183V62.3019C35.183 63.232 36.6317 63.2333 36.6317 62.3019V61.4866H53.3682V62.3019C53.3682 63.232 54.8169 63.2333 54.8169 62.3019V61.4866H55.9754C56.3754 61.4866 56.6998 61.1622 56.6998 60.7622V27.7243C56.6998 27.3244 56.3754 27 55.9754 27H45H34.0245C33.6245 27 33.3002 27.3244 33.3002 27.7243V60.7622ZM55.2512 51.7342V55.1557H34.7489V51.7342H55.2512ZM55.2512 50.2855H45.7243V37.7964C45.7243 36.8663 44.2756 36.865 44.2756 37.7964V50.2855H34.7489V28.4487H44.2756V31.8779C44.2756 32.8079 45.7243 32.8092 45.7243 31.8779V28.4487H55.2511V50.2855H55.2512ZM55.2512 60.0379H34.7489V56.6044H55.2512V60.0379Z" fill="white"/>
<path d="M45.6688 53.1682C45.5193 52.8036 45.0865 52.6247 44.7228 52.7763C44.3586 52.9282 44.1797 53.3571 44.331 53.7224C44.482 54.087 44.9131 54.2644 45.277 54.1135C45.641 53.9624 45.8207 53.533 45.6688 53.1682V53.1682Z" fill="white"/>
<path d="M44.3308 58.5979C44.4474 58.8824 44.7466 59.067 45.0533 59.0432C45.3619 59.0192 45.6262 58.7973 45.7022 58.4971C45.8604 57.8713 45.1469 57.3689 44.6083 57.7127C44.3176 57.8982 44.1981 58.2795 44.3308 58.5979Z" fill="white"/>
<path d="M47.9239 42.858C48.3239 42.858 48.6483 42.5336 48.6483 42.1336V40.1514C48.6483 39.2213 47.1996 39.22 47.1996 40.1514V42.1336C47.1996 42.5336 47.5239 42.858 47.9239 42.858V42.858Z" fill="white"/>
<path d="M42.0209 39.427C41.6209 39.427 41.2965 39.7514 41.2965 40.1514V42.1336C41.2965 43.0637 42.7452 43.065 42.7452 42.1336V40.1514C42.7452 39.7513 42.4209 39.427 42.0209 39.427Z" fill="white"/>
<path d="M44.3309 35.077C44.4825 35.4406 44.9126 35.6198 45.2769 35.4681C45.6414 35.3163 45.8197 34.8883 45.6687 34.5228C45.5183 34.1586 45.087 33.9792 44.7228 34.131C44.3575 34.2833 44.181 34.7111 44.3309 35.077V35.077Z" fill="white"/>
</g>
<defs>
<linearGradient id="paint0_linear" x1="98" y1="108" x2="-11.5" y2="5.5107e-06" gradientUnits="userSpaceOnUse">
<stop stop-color="#27AE60"/>
<stop offset="0.910644" stop-color="#67C48E"/>
</linearGradient>
<clipPath id="clip0">
<path d="M27 27H63V63H27V27Z" fill="white"/>
</clipPath>
</defs>
</svg>
