<svg width="300" height="300" viewBox="0 0 300 300" fill="none" xmlns="http://www.w3.org/2000/svg">
<path d="M0 150C0 67.1573 67.1573 0 150 0C232.843 0 300 67.1573 300 150C300 232.843 232.843 300 150 300C67.1573 300 0 232.843 0 150Z" fill="#27AE60"/>
<path d="M0 150C0 67.1573 67.1573 0 150 0C232.843 0 300 67.1573 300 150C300 232.843 232.843 300 150 300C67.1573 300 0 232.843 0 150Z" fill="url(#paint0_linear)"/>
<path d="M208.66 91.5117C207.775 90.551 206.518 90 205.212 90H152.296C150.99 90 149.734 90.551 148.849 91.5117C147.964 92.4724 147.518 93.7702 147.625 95.0719L153.295 163.958C152.654 163.155 151.756 162.569 150.725 162.322V160.547C150.725 150.659 137.295 137.575 124.851 131.122C124.115 130.741 123.233 130.776 122.53 131.216C121.827 131.655 121.409 132.434 121.429 133.262C121.553 138.142 115.339 141.302 110.105 143.093C101.5 146.038 95.5475 153.818 94.8565 162.78C93.4196 163.582 92.4443 165.116 92.4443 166.875V172.197C91.0456 173.009 90.1006 174.52 90.1006 176.25V205.312C90.1006 207.897 92.2034 210 94.7881 210H151.976C154.56 210 156.663 207.897 156.663 205.312V204.044C157.411 207.453 160.482 210 164.052 210H193.457C197.364 210 200.675 206.95 200.995 203.057L202.653 182.921C202.796 181.182 202.28 179.45 201.229 178.074C202.457 176.917 203.278 175.327 203.424 173.546L209.884 95.0721C209.991 93.7702 209.545 92.4727 208.66 91.5117ZM111.623 147.528C120.544 144.475 124.231 140.461 125.522 136.856C136.737 143.513 146.038 154.075 146.038 160.547V162.188H99.6312C100.51 155.486 105.106 149.758 111.623 147.528ZM97.1318 166.875H147.867C148.033 166.912 148.205 166.934 148.382 166.934C148.559 166.934 148.731 166.912 148.897 166.875H149.632V171.562H97.1318V166.875V166.875ZM151.976 205.312H94.7879V187.5H119.472C120.766 187.5 121.816 186.451 121.816 185.156C121.816 183.862 120.766 182.812 119.472 182.812H94.7881V176.25H151.976V205.312ZM197.981 182.536L196.324 202.672C196.202 204.153 194.943 205.312 193.457 205.312H164.052C162.566 205.312 161.307 204.153 161.185 202.672L159.528 182.536C159.473 181.875 159.691 181.243 160.14 180.756C160.589 180.268 161.201 180 161.863 180H195.645C196.308 180 196.92 180.269 197.369 180.756C197.818 181.243 198.035 181.875 197.981 182.536ZM198.753 173.161C198.653 174.368 197.627 175.312 196.417 175.312H195.645H161.863H161.092C159.881 175.312 158.855 174.368 158.756 173.161L153.222 105.938H177.619C178.913 105.938 179.962 104.888 179.962 103.594C179.962 102.299 178.913 101.25 177.619 101.25H152.836L152.296 94.6875H205.212L198.753 173.161Z" fill="white"/>
<path d="M178.754 117.626C169.174 117.626 161.38 125.42 161.38 135C161.38 144.58 169.174 152.373 178.754 152.373C188.334 152.373 196.127 144.58 196.127 135C196.127 125.42 188.334 117.626 178.754 117.626ZM178.754 147.686C171.759 147.686 166.068 141.995 166.068 135C166.068 128.005 171.759 122.314 178.754 122.314C185.749 122.314 191.44 128.005 191.44 135C191.44 141.995 185.749 147.686 178.754 147.686Z" fill="white"/>
<path d="M187.713 101.937C187.277 101.501 186.673 101.25 186.056 101.25C185.44 101.25 184.835 101.501 184.399 101.937C183.963 102.373 183.712 102.977 183.712 103.594C183.712 104.213 183.963 104.815 184.399 105.251C184.835 105.687 185.44 105.938 186.056 105.938C186.673 105.938 187.277 105.687 187.713 105.251C188.149 104.815 188.4 104.21 188.4 103.594C188.4 102.977 188.149 102.373 187.713 101.937Z" fill="white"/>
<path d="M129.567 183.499C129.131 183.063 128.526 182.812 127.91 182.812C127.293 182.812 126.689 183.063 126.253 183.499C125.817 183.935 125.566 184.54 125.566 185.156C125.566 185.773 125.817 186.377 126.253 186.813C126.689 187.249 127.293 187.5 127.91 187.5C128.526 187.5 129.131 187.249 129.567 186.813C130.003 186.377 130.253 185.773 130.253 185.156C130.253 184.54 130.003 183.935 129.567 183.499Z" fill="white"/>
<defs>
<linearGradient id="paint0_linear" x1="326.667" y1="360" x2="-38.3333" y2="1.8369e-05" gradientUnits="userSpaceOnUse">
<stop stop-color="#27AE60"/>
<stop offset="0.910644" stop-color="#67C48E"/>
</linearGradient>
</defs>
</svg>
