<svg width="90" height="90" viewBox="0 0 90 90" fill="none" xmlns="http://www.w3.org/2000/svg">
<path d="M0 45C0 20.1472 20.1472 0 45 0C69.8528 0 90 20.1472 90 45C90 69.8528 69.8528 90 45 90C20.1472 90 0 69.8528 0 45Z" fill="#27AE60"/>
<path d="M0 45C0 20.1472 20.1472 0 45 0C69.8528 0 90 20.1472 90 45C90 69.8528 69.8528 90 45 90C20.1472 90 0 69.8528 0 45Z" fill="url(#paint0_linear)"/>
<path d="M62.9904 42.5727C62.9256 41.7295 62.5365 40.9624 61.8949 40.4124L58.781 37.7426V30.1562C58.781 29.5736 58.3088 29.1013 57.7264 29.1013H53.5078C52.9253 29.1013 52.4672 29.5736 52.4672 30.1562V32.3173L47.1297 27.7672C45.9365 26.7447 44.2045 26.7448 43.0151 27.7642L28.1058 40.4122C26.7873 41.5423 26.6162 43.5365 27.7637 44.8764C28.6383 45.8937 30.0393 46.2181 31.2336 45.7982V61.9451C31.2336 62.5277 31.6918 63 32.2742 63H57.7263C58.3088 63 58.7809 62.5277 58.7809 61.9451V45.7984C60.0138 46.2344 61.3852 45.869 62.238 44.8749C62.7878 44.233 63.0551 43.4153 62.9904 42.5727ZM54.5624 31.2111H56.6858V35.9341L54.5624 34.1257V31.2111ZM49.3032 60.8902H40.7114V52.4367H49.3032V60.8902ZM56.6858 60.8902H51.3985V51.3958C51.3985 50.8132 50.9263 50.3409 50.3439 50.3409H39.6567C39.0742 50.3409 38.6161 50.8133 38.6161 51.3958V60.8902H33.3289V44.2809L45.067 34.321L56.6858 44.271L56.6858 60.8902ZM60.6367 43.5015C60.2628 43.9374 59.598 44.0014 59.149 43.6162L45.7569 32.1337C45.3635 31.7963 44.7834 31.7949 44.3883 32.1302C44.1029 32.3722 30.9079 43.5683 30.8521 43.6157C30.4104 43.9937 29.7424 43.9421 29.3642 43.5021C28.9856 43.06 29.0368 42.3927 29.4745 42.0174L44.3839 29.3693C44.7819 29.0283 45.3594 29.0283 45.7571 29.3692L60.5223 42.0144C60.9637 42.3927 61.0148 43.0602 60.6367 43.5015Z" fill="white"/>
<defs>
<linearGradient id="paint0_linear" x1="98" y1="108" x2="-11.5" y2="5.5107e-06" gradientUnits="userSpaceOnUse">
<stop stop-color="#27AE60"/>
<stop offset="0.910644" stop-color="#67C48E"/>
</linearGradient>
</defs>
</svg>
