<?xml version="1.0" encoding="UTF-8"?>
<!DOCTYPE svg PUBLIC "-//W3C//DTD SVG 1.1//EN" "http://www.w3.org/Graphics/SVG/1.1/DTD/svg11.dtd">
<!-- Creator: CorelDRAW X6 -->
<svg xmlns="http://www.w3.org/2000/svg" xml:space="preserve" width="297mm" height="160mm" version="1.1" style="shape-rendering:geometricPrecision; text-rendering:geometricPrecision; image-rendering:optimizeQuality; fill-rule:evenodd; clip-rule:evenodd"
viewBox="0 0 29700 16000"
 xmlns:xlink="http://www.w3.org/1999/xlink">
 <defs>
  <style type="text/css">
   <![CDATA[
    .fil0 {fill:#E1C6AD}
   ]]>
  </style>
 </defs>
 <g id="Слой_x0020_1">
  <metadata id="CorelCorpID_0Corel-Layer"/>
  <g id="_294587200">
   <path class="fil0" d="M12633 4576c-2303,-1542 -2416,-697 -3977,-567 7,346 51,414 113,681 802,-18 2003,-707 3267,370 286,244 326,324 485,651 216,449 184,683 679,683 975,0 -645,-1677 986,-4469 206,-355 293,-345 492,-644 1936,1296 1190,4762 1305,4950 130,212 304,246 540,102 540,-328 358,-1870 2814,-1870 651,0 813,181 1363,227l132 -678c-2097,-487 -2161,-664 -3995,564 0,-1755 -992,-3499 -2045,-4204 -1143,305 -2159,2719 -2159,4204l0 0z"/>
   <path class="fil0" d="M11042 12190l-909 0 0 -1819 909 0c550,0 1022,324 1022,910 0,586 -472,909 -1022,909l0 0zm-1705 -2273l0 5113c1002,0 796,263 796,-2272 2857,0 768,2272 2727,2272 -14,-650 -373,-2211 -1023,-2385 442,-660 909,-295 909,-1592 0,-1549 -2897,-1334 -3409,-1136z"/>
   <path class="fil0" d="M16723 12872c0,2497 2341,2560 3336,1858 1096,-773 662,-2157 770,-3779l-14 -1147c-951,0 -813,8 -798,1134 28,2130 350,3525 -1362,3525 -1559,0 -1136,-2863 -1136,-4659l-796 0 0 3068z"/>
   <path class="fil0" d="M26837 10713l796 2159 -1592 0 796 -2159 0 0zm-2272 4317c727,0 866,55 1249,-1590l1932 0c199,414 456,1104 569,1590l794 0 -1345 -3880c-187,-464 -354,-838 -473,-1346l-909 0c-260,1118 -1799,4416 -1817,5226l0 0z"/>
   <path class="fil0" d="M2519 10599l796 2273 -1478 0c178,-761 618,-1504 682,-2273l0 0zm-2159 4431l681 0c200,-413 456,-1103 569,-1590l1932 0c158,330 480,1211 568,1590l796 0c-123,-525 -297,-870 -469,-1349l-966 -2669c-305,-909 -277,-1208 -952,-1208 -518,0 -921,1607 -1207,2430 -166,480 -324,892 -483,1334 -165,461 -424,924 -469,1462z"/>
  </g>
 </g>
</svg>
