<svg width="38" height="18" viewBox="0 0 38 18" fill="none" xmlns="http://www.w3.org/2000/svg">
<path fill-rule="evenodd" clip-rule="evenodd" d="M9.51602 2.2182C9.07481 2.25435 8.67246 2.51966 8.40553 2.95042L5.1305 8.2355C4.6279 9.04661 4.72483 10.2297 5.35275 10.9482L9.44433 15.6297C9.77782 16.0113 10.218 16.2076 10.6592 16.1715L36.1469 14.0833C37.0232 14.0115 37.6605 13.0608 37.5703 11.9599L36.7537 1.99334C36.6635 0.892447 35.88 0.0582218 35.0038 0.130014L9.51602 2.2182ZM10.3524 11.1798C11.2286 11.108 11.8659 10.1574 11.7757 9.05652C11.6855 7.95563 10.902 7.1214 10.0257 7.1932C9.14947 7.26499 8.51221 8.21561 8.6024 9.31651C8.6926 10.4174 9.47609 11.2516 10.3524 11.1798Z" fill="#27AE60"/>
<g clip-path="url(#clip0)">
<path d="M27.945 6.5775L27.0686 6.30824C26.9718 6.28349 26.9293 6.21753 26.9126 6.17229C26.8959 6.12705 26.8767 6.05856 26.9144 5.97211L27.2946 5.14249C27.4477 4.81994 27.3839 4.45043 27.143 4.18255C26.902 3.91468 26.5393 3.82478 26.1994 3.94415L25.3373 4.23803C25.2468 4.27141 25.1733 4.24413 25.1359 4.22467C25.0984 4.20522 25.034 4.15342 25.0122 4.06167L24.8437 3.1624C24.7696 2.80578 24.5054 2.54044 24.1568 2.47252C23.807 2.39298 23.458 2.53687 23.2546 2.8296L22.7247 3.5814C22.6742 3.65749 22.594 3.67798 22.5475 3.68305C22.501 3.68811 22.43 3.68408 22.3526 3.62192L21.6734 3.0018C21.4117 2.75972 21.0399 2.69433 20.7154 2.84731C20.3909 3.0003 20.1887 3.30466 20.1931 3.66888L20.2105 4.5846C20.209 4.67888 20.1572 4.74335 20.1248 4.7704C20.0925 4.79745 20.0265 4.83992 19.931 4.8268L19.0259 4.72538C18.6682 4.68198 18.3346 4.85948 18.1557 5.16131C17.9781 5.47476 17.9954 5.84934 18.2143 6.13137L18.7642 6.8597C18.8196 6.93602 18.8168 7.01867 18.809 7.05482C18.8011 7.09096 18.7739 7.16452 18.6859 7.22116L17.8997 7.67147C17.5893 7.84645 17.4142 8.18315 17.4535 8.54357C17.4928 8.90399 17.7362 9.19512 18.077 9.29918L18.9533 9.56844C19.0501 9.59319 19.0926 9.65915 19.1093 9.70439C19.1247 9.738 19.1452 9.81812 19.1076 9.90457L18.7273 10.7342C18.5742 11.0567 18.638 11.4263 18.8789 11.6941C19.1199 11.962 19.4826 12.0519 19.8225 11.9325L20.6846 11.6386C20.7751 11.6053 20.8486 11.6325 20.8861 11.652C20.9235 11.6715 20.9879 11.7233 21.0097 11.815L21.1898 12.713C21.264 13.0696 21.5281 13.335 21.8767 13.4029C21.9735 13.4276 22.0678 13.4291 22.1608 13.419C22.405 13.3924 22.6377 13.2612 22.779 13.0458L23.2972 12.2953C23.3478 12.2192 23.4279 12.1987 23.4744 12.1936C23.5209 12.1886 23.5919 12.1926 23.6693 12.2548L24.3485 12.8749C24.6102 13.117 24.982 13.1823 25.3065 13.0294C25.631 12.8764 25.8332 12.572 25.8288 12.2078L25.8114 11.2921C25.8129 11.1978 25.8647 11.1333 25.8971 11.1063C25.9294 11.0792 25.9954 11.0368 26.0909 11.0499L26.9961 11.1513C27.3537 11.1947 27.6873 11.0172 27.8662 10.7154C28.0438 10.4019 28.0266 10.0273 27.8076 9.74531L27.2577 9.01698C27.2023 8.94066 27.2051 8.85801 27.2129 8.82186C27.2208 8.78572 27.2481 8.71216 27.336 8.65552L28.1339 8.20394C28.4442 8.02897 28.6193 7.69226 28.58 7.33184C28.5292 6.97269 28.2857 6.68156 27.945 6.5775ZM27.8019 7.64011L27.0156 8.09043C26.7945 8.22039 26.6416 8.43703 26.5856 8.67843C26.5308 8.93144 26.5935 9.18343 26.7455 9.3904L27.2954 10.1187C27.379 10.239 27.3323 10.35 27.3128 10.3874C27.2934 10.4248 27.2221 10.5267 27.0672 10.5083L26.1633 10.4185C25.9128 10.3869 25.6518 10.4742 25.4706 10.6469C25.2778 10.8208 25.1752 11.0673 25.1785 11.3139L25.1959 12.2297C25.1995 12.3705 25.1012 12.44 25.0559 12.4567C25.0107 12.4734 24.8969 12.5093 24.7925 12.4148L24.1133 11.7946C23.9302 11.6264 23.6734 11.5367 23.4176 11.5645C23.1618 11.5924 22.9291 11.7236 22.7878 11.939L22.258 12.6908C22.1764 12.8056 22.0576 12.795 22.0098 12.7884C21.962 12.7818 21.851 12.7351 21.8242 12.5969L21.6441 11.6989C21.593 11.4456 21.4398 11.227 21.2153 11.1103C21.0515 11.0105 20.8591 10.9726 20.6731 10.9929C20.6033 11.0005 20.5465 11.0184 20.478 11.0376L19.6159 11.3315C19.4802 11.3816 19.3887 11.2974 19.35 11.2664C19.3113 11.2353 19.2534 11.1357 19.3092 11.0002L19.6895 10.1706C19.7933 9.93577 19.8003 9.67619 19.6923 9.4409C19.5844 9.2056 19.3884 9.02695 19.1458 8.95926L18.2682 8.67838C18.1339 8.63417 18.098 8.52044 18.093 8.47393C18.0879 8.42743 18.0869 8.3099 18.22 8.23657L19.0179 7.78498C19.239 7.65502 19.3919 7.43838 19.448 7.19699C19.5028 6.94397 19.44 6.69198 19.2881 6.48501L18.7382 5.75668C18.6545 5.63639 18.7012 5.52542 18.7207 5.48801C18.7401 5.45059 18.8114 5.34872 18.9663 5.36714L19.8715 5.46856C20.122 5.5001 20.383 5.41285 20.5642 5.24018C20.757 5.06624 20.8596 4.81978 20.8563 4.5731L20.8389 3.65737C20.8353 3.51658 20.9336 3.44706 20.9789 3.43037C21.0241 3.41367 21.1379 3.37776 21.2423 3.47227L21.9215 4.09239C22.1046 4.26069 22.3614 4.35036 22.6172 4.3225C22.873 4.29465 23.1057 4.16342 23.247 3.94804L23.7768 3.19624C23.8585 3.08147 23.9772 3.09206 24.025 3.09863C24.0728 3.10519 24.1838 3.15192 24.2106 3.29018L24.3907 4.18818C24.4418 4.44143 24.5951 4.66003 24.8195 4.77676C25.0453 4.90511 25.3061 4.92376 25.5452 4.85066L26.4073 4.55678C26.543 4.50671 26.6345 4.59086 26.6732 4.62194C26.7002 4.65429 26.7698 4.75259 26.7139 4.88808L26.3337 5.7177C26.2299 5.95253 26.2229 6.21212 26.3308 6.44741C26.4388 6.6827 26.6347 6.86136 26.8774 6.92905L27.7538 7.1983C27.888 7.24251 27.9239 7.35624 27.929 7.40275C27.934 7.44925 27.9351 7.56678 27.8019 7.64011Z" fill="white"/>
<path d="M24.2262 5.59433C24.0649 5.51778 23.8711 5.57419 23.7945 5.73546L21.7088 9.80955C21.6323 9.97082 21.6887 10.1647 21.85 10.2412C21.9119 10.2698 21.9713 10.2751 22.0294 10.2687C22.1341 10.2573 22.2336 10.1994 22.2817 10.1001L24.3673 6.02601C24.4439 5.86474 24.3758 5.67215 24.2262 5.59433Z" fill="white"/>
<path d="M21.726 7.26658C21.9957 7.23721 22.1905 6.99478 22.1612 6.72509C22.1318 6.45541 21.8893 6.26059 21.6197 6.28996C21.35 6.31933 21.1552 6.56176 21.1845 6.83145C21.2139 7.10114 21.4563 7.29595 21.726 7.26658Z" fill="white"/>
<path d="M24.469 8.57951C24.2016 8.60863 24.0048 8.85359 24.0339 9.121C24.063 9.38841 24.308 9.58526 24.5754 9.55613C24.8428 9.52701 25.0396 9.28205 25.0105 9.01464C24.9814 8.74723 24.7364 8.55039 24.469 8.57951Z" fill="white"/>
</g>
<path d="M11.1106 9.366C11.1106 9.366 1.2878 11.6734 4.32885 8.61121C7.36991 5.54902 4.74322 15.901 4.74322 15.901" stroke="#535353"/>
<defs>
<clipPath id="clip0">
<rect x="16.9316" y="2.45056" width="12.2098" height="12.4302" transform="rotate(-6.21529 16.9316 2.45056)" fill="white"/>
</clipPath>
</defs>
</svg>
