<svg width="254" height="194" viewBox="0 0 254 194" fill="none" xmlns="http://www.w3.org/2000/svg">
<g clip-path="url(#clip0)">
<path d="M127 194C197.14 194 254 193.657 254 193.233C254 192.81 197.14 192.466 127 192.466C56.8598 192.466 0 192.81 0 193.233C0 193.657 56.8598 194 127 194Z" fill="#F0F4FF"/>
<path d="M107.575 36.1214L100.208 35.0235L98.0154 35.1772L94.5622 32.9374L93.9702 30.4232L96.3271 29.5888L99.287 27.6455L103.135 20.1797L107.575 14.7669L114.382 11.9014L119.304 12.626L124.095 14.6901L128.074 15.0304L134.981 17.8191L137.667 18.412L138.544 18.6426L153.474 22.7158L160.271 28.9081L166.52 40.3593L168.427 49.4062L169.315 56.6414L169.019 62.3506L168.866 66.4897L170.389 73.187L170.883 80.6638L169.611 84.7481L164.908 92.7299L161.06 99.0979L147.303 93.0154L148.64 84.4516L152.882 70.596L152.784 59.9571L150.898 48.0228L147.05 37.3291C147.05 37.3291 138.434 25.7461 131.297 25.8339C124.161 25.9218 125.257 25.5814 125.257 25.5814L121.475 26.1084L118.921 27.0087L111.828 22.8915L108.748 27.6125L110.184 29.5119L109.756 31.8395L107.564 36.1653" fill="#F0F4FF"/>
<path d="M149.649 1.01007L139.782 13.2299L138.127 20.9592L138.5 32.8716L144.496 38.8882L147.445 29.6767L152.082 22.0461L154.001 16.2491L151.973 8.19044L149.649 1.01007Z" fill="white"/>
<path d="M152.499 22.0461C154.31 19.4669 154.851 16.2018 153.968 13.1749C152.871 9.05777 151.775 4.96254 150.613 0.867313C150.328 -0.153749 149.604 -0.230603 148.903 0.636751C145.921 4.38064 142.928 8.10258 140.023 11.9014C139.302 12.8368 138.797 13.9204 138.543 15.0743C138.027 17.4258 137.712 19.8169 137.601 22.2218C137.502 26.0315 137.688 29.8413 137.809 33.6511C137.809 34.0024 138.302 34.3428 138.554 34.6831C138.772 34.3171 138.924 33.9158 139.004 33.4974C139.004 32.63 138.85 31.7517 138.785 30.8843C138.541 26.4115 138.732 21.9256 139.355 17.4898C139.616 15.1353 140.582 12.9152 142.128 11.1218C144.156 8.70643 146.129 6.2471 148.125 3.79875C148.574 3.24979 149.002 2.70083 149.637 1.83348C150.734 6.09339 151.83 10.013 152.838 13.9106C153.477 16.3148 153.054 18.8778 151.676 20.9482C149.56 24.1342 147.669 27.4655 146.02 30.9173C144.858 33.5523 144.485 36.5386 143.827 39.3822C143.761 39.6786 144.156 40.0739 144.332 40.4801C144.604 40.1509 144.822 39.7803 144.978 39.3822C145.132 38.7564 145.088 38.0757 145.219 37.4389C146.381 31.7078 149.21 26.7562 152.488 22.0681C152.674 22.5182 151.391 22.4853 151.775 22.7049C154.899 24.758 158.912 27.9309 160.994 31.0161C165.401 37.7167 168.041 45.4259 168.668 53.4245C169.425 60.0948 168.332 66.845 165.511 72.9345C165.237 73.5274 164.415 74.1642 165.303 74.8229C165.823 74.4957 166.253 74.0427 166.552 73.5054C167.397 71.639 168.109 69.7066 168.931 67.6535C170.113 71.8034 170.485 76.1424 170.027 80.4333C169.877 82.1286 169.436 83.7852 168.723 85.33C167.517 87.8113 165.982 90.1498 164.546 92.5213C164.053 93.3338 164.228 93.762 165.138 94.0035C165.774 92.9056 166.377 91.8077 167.013 90.7098L168.197 91.094C172.417 92.3786 176.66 93.6412 180.869 94.9916C181.806 95.2219 182.65 95.731 183.292 96.4519C184.794 98.5489 186.077 100.844 187.491 102.973C190.012 106.86 192.446 110.824 195.164 114.589C197.532 117.883 200.185 121.012 202.838 124.152C203.584 125.031 207.793 129.829 208.692 130.586L208.944 130.312C208.703 129.96 205.305 125.448 205.042 125.118C203.101 122.571 201.292 119.903 199.177 117.51C195.038 112.683 191.398 107.448 188.313 101.887C187.063 99.6907 185.671 97.6486 184.29 95.5735C183.606 94.6047 182.571 93.9426 181.407 93.729C176.901 92.5213 172.439 91.116 167.791 89.7216C168.394 88.7774 168.822 88.0748 169.282 87.3831C170.965 84.9441 171.812 82.0234 171.694 79.0609C171.655 75.9081 171.351 72.7642 170.784 69.6627C170.037 66.5787 169.789 63.3944 170.049 60.2316C170.883 51.8106 168.778 43.8727 165.5 36.1873C163.326 31.0662 159.811 26.6282 155.327 23.3417C153.288 21.8814 152.082 21.8595 152.499 22.0461Z" fill="white"/>
<path d="M113.626 115.281C112.804 114.853 112.113 114.469 111.433 114.183C110.726 113.869 109.913 113.906 109.238 114.284C108.562 114.662 108.105 115.337 108.002 116.105C107.838 117.202 107.607 118.3 107.52 119.497C107.454 120.419 107.18 120.859 106.139 120.924C103.805 121.084 101.559 121.873 99.6378 123.208C98.8302 123.706 97.9651 124.105 97.0616 124.394C95.8777 124.844 94.6389 125.14 93.4659 125.623C86.8884 128.335 80.311 131.025 73.8212 133.836C69.7103 135.604 65.5665 137.009 61.0061 136.603C60.4775 136.585 59.9485 136.621 59.4275 136.712C56.784 136.925 54.2856 138.01 52.3238 139.798C52.0936 140.006 52.1265 140.522 52.0388 140.896C52.3786 140.841 52.8391 140.896 53.0583 140.731C55.3694 138.803 58.2949 137.771 61.3021 137.821C64.1742 137.712 67.0574 137.92 69.8528 136.723C76.211 134.001 82.646 131.442 89.048 128.818L93.0055 127.161C90.7472 130.674 90.8897 134.121 91.7667 137.591C92.7534 141.466 93.7509 145.276 94.913 149.141C95.8557 152.226 96.7985 155.344 99.2322 157.792C97.4343 158.462 95.7023 159.055 94.0031 159.747C89.2344 161.712 84.3451 163.48 79.7519 165.785C74.5557 168.398 69.513 171.363 64.5908 174.47C61.1479 176.58 57.0674 177.393 53.0802 176.764C51.0945 176.45 49.0609 176.678 47.1934 177.423C45.9265 178.069 44.3861 177.801 43.4114 176.764C41.6683 174.931 39.9692 173.053 38.4015 171.077C37.5945 170.003 37.3537 168.605 37.7547 167.322C38.0359 166.215 38.2085 165.082 38.27 163.941C38.6768 156.366 41.2323 149.065 45.6367 142.894C52.0255 133.771 57.8537 124.268 63.089 114.436C64.9855 110.889 67.2218 107.53 69.2827 104.082C69.9182 103.018 70.9734 102.272 72.1878 102.029C75.9698 101.096 79.73 100.075 83.501 99.0869C84.2684 98.8892 85.0248 98.6697 85.7812 98.4611V98.0109C84.7943 97.8954 83.7973 97.8954 82.8104 98.0109C79.1928 98.8673 75.6081 99.9213 71.9905 100.778C70.3931 101.072 69.0037 102.051 68.1865 103.457C66.2571 106.641 64.2181 109.77 62.4203 113.03C57.5084 122.228 52.1147 131.159 46.2616 139.787C44.3651 142.52 42.7317 145.441 40.9996 148.284C39.575 150.613 38.6318 153.204 38.2261 155.904C37.667 159.637 37.2066 163.392 36.5489 167.103C36.1416 168.649 36.4043 170.295 37.2724 171.637C38.7963 173.659 40.44 175.587 42.1945 177.412C43.6363 179.078 46.0325 179.533 47.9827 178.51C49.4142 177.962 50.9658 177.807 52.4773 178.06C56.961 178.444 61.335 178.247 65.1828 175.447C66.0323 174.902 66.9106 174.404 67.8138 173.954C75.5642 169.705 82.9529 164.764 91.4488 161.975C94.5731 160.943 97.6097 159.681 100.701 158.572C101.46 158.352 102.043 157.739 102.225 156.969C103.486 152.577 104.637 148.186 104.275 143.454C105.259 143.217 106.259 143.052 107.268 142.96C110.118 142.941 112.785 141.552 114.437 139.227C115.493 137.88 116.809 136.76 118.307 135.933C123.207 133.32 128.173 130.904 133.205 128.434C135.935 127.203 138.281 125.253 139.991 122.791C141.087 121.166 141.24 120.2 139.859 118.838C138.744 117.728 137.46 116.801 136.055 116.094C130.508 113.426 124.533 112.185 118.515 111.263C115.709 110.835 114.788 111.592 113.9 114.26C113.801 114.535 113.735 114.831 113.626 115.281Z" fill="white"/>
<path d="M75.7837 83.0903C76.3209 83.771 76.7594 84.3748 77.2417 84.9348C81.077 89.3298 86.5565 91.9405 92.3809 92.1481C98.2787 92.5104 103.124 90.4683 105.832 84.7152C106.806 82.752 107.878 80.8392 109.044 78.9841C109.511 77.9037 110.565 77.1958 111.741 77.1725C112.026 77.1725 112.322 76.6894 112.607 76.4259C112.256 76.2283 111.828 75.8001 111.576 75.8879C110.447 76.168 109.381 76.6557 108.43 77.3262C107.059 78.6158 105.791 80.0108 104.637 81.4983C99.4118 87.9575 90.0376 89.1571 83.3588 84.2211C80.1797 81.9045 77.2198 79.2695 74.1832 76.7443C73.6573 76.2208 73.1837 75.6472 72.7691 75.0316C73.119 74.7969 73.4854 74.5877 73.8653 74.4058C75.0809 73.9905 76.0126 72.9998 76.3538 71.7598C76.9506 70.2068 77.6275 68.686 78.3818 67.2034C79.2605 65.4081 80.7661 63.9979 82.6133 63.2399C91.3745 59.223 99.1474 53.3273 105.382 45.9697C107.345 43.6751 109.142 42.1709 112.289 42.8956C113.136 42.937 113.963 42.6226 114.569 42.0282C116.123 40.3447 117.198 38.2746 117.682 36.0336C118.077 34.7051 117.682 33.1131 119.096 32.125C119.239 32.0152 119.25 31.7298 119.338 31.5321C119.673 30.6317 120.076 29.7581 120.543 28.9191C121.157 27.9749 120.96 27.415 120.061 26.888C117.715 25.5265 115.38 24.1432 113.045 22.7708C112.676 22.4701 112.188 22.3594 111.725 22.4714C111.263 22.5834 110.879 22.9053 110.688 23.3417C109.806 25.0866 109.012 26.8748 108.309 28.6995C108.211 28.9411 108.682 29.6218 109.022 29.7974C110.326 30.3135 111.686 30.6318 113.001 31.1259C114.481 31.6749 115.939 32.3226 117.189 32.8387L116.422 34.8259C114.503 33.2998 112.245 33.0582 109.614 33.2119C110.034 32.8746 110.43 32.5077 110.798 32.114C110.985 31.7837 111.136 31.4339 111.247 31.071C110.831 31.071 110.151 30.8953 110.009 31.071C108.991 32.0721 108.08 33.1759 107.29 34.3648C105.725 36.6313 105.122 39.4267 105.613 42.138C105.705 42.9445 105.481 43.7555 104.988 44.3997C100.084 50.3376 94.186 55.3754 87.5574 59.2875C87.0063 59.547 86.3819 59.6052 85.7925 59.4521C82.712 58.7824 80.3112 59.2545 79.6316 62.4714C79.4921 63.0702 79.2785 63.6493 78.9957 64.1951C77.8995 66.391 76.5073 68.4111 75.4987 70.6179C75.0718 71.9388 74.097 73.0111 72.8239 73.5604C71.4974 74.0983 71.2672 75.0535 72.1223 76.2063C72.8394 77.0859 73.6277 77.9048 74.4792 78.6547C75.4721 79.6524 75.5661 81.2351 74.6985 82.3437C73.8954 83.0136 73.6011 84.1178 73.964 85.0995C74.8848 87.1269 75.8824 89.1361 76.9567 91.127C77.3374 91.7696 77.8583 92.3176 78.4805 92.73C80.1256 93.971 81.871 95.0727 83.6986 96.0237C85.4766 96.9683 87.4267 97.5434 89.432 97.7145C94.6392 97.8133 99.5613 96.7044 103.365 92.708C104.79 91.2149 106.226 89.7436 107.652 88.2505C109.077 86.7573 110.305 85.4508 111.642 84.0674C111.955 83.6277 112.442 83.3436 112.979 83.287C113.515 83.2303 114.05 83.4065 114.448 83.771C121.3 88.3054 128.393 88.2615 135.595 84.6164C138.078 83.4188 139.955 81.2447 140.78 78.6108C141.715 75.8055 141.758 72.7785 140.901 69.9482C140.802 69.6298 140.342 69.4212 140.046 69.1577C139.903 69.52 139.618 69.8823 139.629 70.2556C139.629 70.8595 139.914 71.4524 139.991 72.0562C140.44 75.7452 140.057 79.3683 137.141 81.9375C133.41 85.0263 128.588 86.4683 123.777 85.9339C119.71 85.4947 116.202 83.4416 112.881 81.1579C112.411 80.9542 111.911 80.8281 111.401 80.7846L111.587 82.1131C109.932 83.8918 108.298 85.7911 106.468 87.6027C104.718 89.6218 102.791 91.4809 100.712 93.1582C95.7135 96.7044 90.2103 97.6816 84.477 94.9807C82.6194 94.0003 80.8385 92.8809 79.1492 91.6321C78.6075 91.1809 78.1118 90.677 77.6693 90.1279L77.8228 90.0181L79.8179 90.9513L80.0481 90.4902C79.6562 90.2281 79.2893 89.9304 78.9519 89.6009C77.7241 88.1956 76.4853 86.7902 75.3562 85.2971C75.0811 84.961 74.9697 84.5197 75.0524 84.0931C75.135 83.6665 75.4031 83.2989 75.7837 83.0903Z" fill="white"/>
<path d="M144.77 105.828L145.231 105.619C145.802 106.555 146.318 107.523 146.777 108.518C147.873 111.34 149.791 112.986 152.959 112.822C153.036 112.822 153.102 112.91 153.223 112.976C153.223 113.305 153.146 113.645 153.113 113.986L152.017 125.898C151.841 127.644 152.707 128.709 154.132 129.642C156.67 131.196 159.091 132.931 161.379 134.835C168.745 141.538 175.625 148.759 181.966 156.442C182.933 157.746 184.129 158.862 185.496 159.736C189.689 162.049 194.32 163.455 199.089 163.864C203.354 164.171 207.278 162.689 211.038 160.757C211.437 160.526 211.896 160.423 212.354 160.46C214.481 160.856 214.963 160.79 215.851 158.792C217.046 156.124 218.043 153.302 219.041 150.601C219.525 149.218 219.339 147.688 218.537 146.462C217.232 144.036 216.092 141.532 214.897 139.04C214.086 137.349 213.439 135.549 212.475 133.946C211.712 132.754 210.739 131.713 209.602 130.872C207.596 129.323 205.382 128.039 203.332 126.48C197.116 121.935 190.429 118.048 184.696 112.844C177.932 106.728 170.949 100.866 164.042 94.9038C161.521 92.708 160.447 92.708 158.43 94.7172C155.843 93.6193 153.266 92.3676 150.613 91.3356C148.636 90.4254 146.545 89.7865 144.398 89.4362C140.517 89.0739 136.603 89.2166 132.701 89.1178C129.703 89.0099 126.75 89.8639 124.271 91.5552C120.894 93.8388 117.496 96.0786 114.119 98.3623C113.81 98.5987 113.586 98.9304 113.484 99.3065C112.864 101.275 113.456 103.425 114.996 104.796C116.127 105.968 117.335 107.061 118.614 108.068C120.342 109.398 122.25 110.474 124.282 111.263C130.958 113.305 137.634 112.602 144.168 110.439C144.638 110.145 144.94 109.643 144.979 109.089C144.98 107.999 144.911 106.909 144.77 105.828Z" fill="white"/>
<path d="M159.909 136.284C155.524 132.42 150.449 129.631 145.571 126.612C145.362 126.48 145.033 126.546 144.748 126.513C144.706 126.826 144.706 127.144 144.748 127.457C144.869 127.787 145.031 128.101 145.231 128.39C147.653 133.111 150.032 137.843 152.51 142.531C153.44 143.964 153.121 145.872 151.775 146.923C146.89 151.963 141.361 156.335 135.332 159.922C132.29 161.692 128.869 162.709 125.356 162.887C117.609 163.339 109.838 163.181 102.115 162.415C100.811 162.305 100.241 162.623 99.9229 163.908C98.0593 170.77 96.1189 177.599 94.2114 184.439C93.9374 185.405 93.6195 186.371 93.4331 187.359C93.4331 187.634 93.6962 187.985 93.8497 188.293C94.0875 188.138 94.3048 187.953 94.4965 187.744C94.6285 187.469 94.7208 187.177 94.7705 186.876C96.1956 181.753 97.6281 176.6 99.0678 171.418C99.7913 168.859 100.515 166.301 101.26 163.732C105.481 163.941 109.548 164.303 113.615 164.314C118.252 164.314 122.9 164.171 127.526 163.875C131.769 163.589 135.31 161.525 138.774 159.198C143.878 155.862 148.586 151.954 152.806 147.549C154.372 146.235 154.745 143.972 153.683 142.224C152.466 139.896 151.403 137.492 150.219 135.142C149.199 133.133 148.114 131.157 147.061 129.17C151.446 131.849 156.084 133.968 159.504 137.865C160.216 138.667 161.115 138.667 161.203 137.865C161.135 137.074 160.927 136.3 160.589 135.582L160.216 135.669L159.909 136.284Z" fill="white"/>
<path d="M126.287 15.4367C126.709 15.452 127.13 15.4886 127.548 15.5465C130.979 16.3845 134.272 17.7119 137.327 19.488C137.706 19.5871 138.1 19.6132 138.489 19.5649C138.313 19.1916 138.226 18.6316 137.93 18.4669C136.015 17.3526 134.022 16.3802 131.966 15.5575C129.938 14.9426 127.811 14.6791 125.728 14.2509C124.975 14.1865 124.236 14.0088 123.536 13.724C119.962 11.6269 116.301 10.4302 112.157 11.9014C108.057 13.3581 104.674 16.3378 102.707 20.2236C101.819 21.9583 100.964 23.8358 99.9776 25.6034C98.7388 27.909 97.1931 29.7755 94.2113 29.6437C93.4659 29.6437 93.1151 30.0939 93.3891 30.8954C94.4854 34.6283 99.5391 37.395 103.255 36.2422C103.551 36.1544 103.76 35.7591 104.001 35.5066C103.702 35.3096 103.372 35.1648 103.025 35.0784C102.203 35.0235 101.359 35.1553 100.537 35.0784C97.6535 34.782 95.5378 33.168 94.9677 30.8624C97.3117 30.756 99.4121 29.3803 100.449 27.2722C101.436 25.5595 102.313 23.7918 103.222 22.0462C104.356 19.6103 105.98 17.435 107.991 15.6563C112.53 11.9453 117.156 11.5062 122.242 14.3827C125.054 15.9564 127.374 18.283 128.94 21.1019C129.149 21.4752 129.653 21.6729 130.037 21.9583C130.037 21.4643 130.19 20.8604 129.96 20.4871C128.798 18.7963 127.559 17.1714 126.287 15.4367Z" fill="white"/>
<path d="M102.883 161.394C103.245 161.251 103.486 161.163 103.727 161.042L122.144 152.072C125.251 150.532 127.897 148.199 129.818 145.309C131.539 142.762 133.304 140.248 134.871 137.624C139.311 130.18 143.85 122.769 145.987 114.205C146.195 113.404 146.491 112.613 146.623 111.801C146.678 111.504 146.404 111.153 146.272 110.824C145.993 111.031 145.733 111.262 145.494 111.515C145.37 111.747 145.292 112.001 145.264 112.262C143.788 118.138 141.489 123.775 138.434 129.005C135.222 134.176 132.087 139.402 128.831 144.541C127.038 147.327 124.506 149.558 121.519 150.985L106.917 158.199C105.536 158.868 104.122 159.461 102.751 160.142C102.48 160.327 102.291 160.61 102.225 160.932C102.258 161.042 102.686 161.251 102.883 161.394Z" fill="white"/>
<path d="M93.0163 119.958L89.5083 122.308C87.8639 123.406 87.5131 124.449 88.2367 126.26C88.3353 126.491 88.6423 126.634 88.8506 126.82C89.0625 126.591 89.2398 126.332 89.3768 126.052C89.4249 125.791 89.4022 125.521 89.311 125.272C89.026 124.317 89.4206 123.768 90.2538 123.274C91.6789 122.429 93.0492 121.462 94.3976 120.507C94.6919 120.218 94.9397 119.885 95.132 119.519C94.7859 119.278 94.4191 119.069 94.0358 118.893C91.8433 118.125 89.4864 117.554 87.3377 116.599C84.1915 115.215 83.8188 114.194 85.4741 111.23C87.557 107.486 89.8591 103.874 92.1174 100.251C92.3476 99.8664 92.5888 99.4931 92.8299 99.1528L92.5011 98.7685C92.0077 99.0759 91.339 99.2626 91.065 99.7017C88.7848 103.336 86.4388 106.948 84.3888 110.681C82.3389 114.414 83.0514 116.039 86.8444 117.85C87.9407 118.377 89.1137 118.773 90.2647 119.19C91.1088 119.42 91.9529 119.673 93.0163 119.958Z" fill="white"/>
<path d="M112.036 85.9339L111.356 85.7033C110.949 86.3331 110.632 87.0167 110.414 87.7344C109.949 91.2824 109.111 94.7711 107.914 98.1427C105.613 104.383 104.813 111.078 105.579 117.686C105.579 118.004 106.018 118.3 106.248 118.597C106.412 118.257 106.73 117.905 106.741 117.499C106.741 115.698 106.665 113.909 106.632 112.108C106.659 107.965 107.325 103.85 108.605 99.9103C109.219 100.855 109.701 101.722 110.326 102.49C110.512 102.732 111.039 102.699 111.422 102.787C111.397 102.444 111.349 102.103 111.28 101.766C111.214 101.568 111.006 101.425 110.885 101.25C109.769 99.7807 109.438 97.8594 109.997 96.1006C110.94 92.8398 111.4 89.3484 112.036 85.9339Z" fill="white"/>
<path d="M164.097 187.798C165.117 187.996 165.446 187.634 165.599 186.821C166.092 184.153 166.608 181.485 167.2 178.829C169.428 168.883 172.358 159.109 175.97 149.58C176.095 149.003 176.132 148.411 176.079 147.823C175.652 148.274 175.049 148.658 174.829 149.207C170.412 160.296 166.531 176.073 164.097 187.798Z" fill="white"/>
<path d="M131.769 41.7208V41.8965C132.865 41.8965 133.961 41.8965 135.057 41.8965C135.395 41.9205 135.73 41.8317 136.011 41.6439C137.02 40.7656 136.669 37.0107 135.003 36.6265C131.256 35.7504 127.415 35.352 123.569 35.4407C123.087 35.5832 122.714 35.9655 122.582 36.4508C122.473 37.6744 122.473 38.9053 122.582 40.1288C122.736 42.0502 123.152 42.3247 125.071 42.2368L131.769 41.7208Z" fill="white"/>
<path d="M148.892 88.9312C149.988 82.1351 152.323 75.7562 154.373 69.2785C155.287 65.9501 156.019 62.5745 156.566 59.1667C156.665 58.6397 156.281 57.5417 156.084 57.5308C154.987 57.5308 155.481 58.4201 155.371 58.991C154.9 61.3844 154.637 63.8328 153.968 66.1714C152.378 71.6609 150.58 77.1505 148.925 82.6401C148.421 84.3089 148.092 86.0327 147.708 87.7454C147.467 88.6567 147.829 89.0958 148.892 88.9312Z" fill="white"/>
<path d="M153.014 65.5565L153.178 65.6443C153.475 64.3593 153.665 63.052 153.748 61.7358C153.748 59.9462 153.409 58.1566 153.233 56.367C152.646 49.2454 150.393 42.3623 146.656 36.2751C146.147 37.0999 146.177 38.1489 146.733 38.943C148.996 42.8092 150.517 47.0656 151.216 51.4922C151.896 56.1693 152.422 60.8684 153.014 65.5565Z" fill="white"/>
<path d="M95.0337 73.2968C93.2642 73.3946 91.6035 74.1829 90.4075 75.4927C89.9146 76.0992 89.5626 76.808 89.3771 77.5677C89.2126 78.3143 89.6402 78.8084 90.4733 78.3582C91.782 77.6333 93.3084 77.4072 94.7706 77.7214C96.5136 78.0398 98.2786 76.887 98.3334 75.6134C98.3882 74.3399 96.8863 73.2859 95.0337 73.2968Z" fill="white"/>
<path d="M131.845 16.0185L132.426 15.6782C131.791 13.9654 130.497 10.6607 129.96 8.926C129.576 7.68535 129.445 6.37883 129.105 5.12721C128.929 4.46846 128.655 3.45838 128.228 3.34858C127.48 3.23011 126.719 3.45603 126.156 3.96342C124.062 6.15925 122.505 10.3204 121.365 13.0761C122.308 13.5263 122.637 13.1969 122.988 12.4613C123.876 10.5619 125.377 7.39989 126.397 5.56637C126.701 5.14409 127.072 4.77342 127.493 4.46846C128.074 6.48862 128.589 8.35508 129.16 10.1996C129.434 11.1218 130.354 13.658 130.771 14.5254C131.08 15.0568 131.44 15.5569 131.845 16.0185Z" fill="white"/>
<path d="M142.863 30.028L142.6 29.9621C142.635 29.3113 142.727 28.6647 142.874 28.0298C143.97 24.5165 145.066 21.0361 146.163 17.5227C146.204 17.0957 146.171 16.6647 146.064 16.2491C145.735 16.5017 145.209 16.6883 145.088 17.0287C143.915 20.4542 142.742 23.8906 141.712 27.371C141.433 28.5648 141.319 29.7913 141.372 31.0161C141.456 31.4617 141.712 31.8562 142.085 32.114C142.216 32.2128 142.808 31.8944 143.038 31.6309C143.613 30.9738 144.13 30.2685 144.584 29.5229C144.727 29.2814 144.584 28.8532 144.507 28.5129C144.196 28.5636 143.898 28.6756 143.63 28.8422C143.339 29.2131 143.082 29.61 142.863 30.028Z" fill="white"/>
<path d="M123.646 45.0145L124.884 43.5872L124.786 43.2139C124.358 43.2139 123.777 43.1261 123.514 43.3567C122.97 43.8496 122.53 44.447 122.221 45.1133C121.804 46.0466 122.221 46.5626 123.24 46.7053C125.944 47.0859 128.652 47.4995 131.363 47.946C132.761 48.3382 134.254 48.1933 135.551 47.5397C135.891 47.3311 136.066 46.859 136.329 46.5077C135.913 46.403 135.487 46.3404 135.058 46.321C134.093 46.5331 133.108 46.6398 132.12 46.6394C129.357 46.2112 126.606 45.5854 123.646 45.0145Z" fill="white"/>
<path d="M70.456 184.955C70.1929 182.21 69.7105 176.753 69.3597 173.35C69.3597 172.933 68.8774 172.548 68.6252 172.153C68.3898 172.598 68.2375 173.081 68.1758 173.58C68.2635 175.063 68.7568 178.587 68.8335 180.08C69.0089 183.626 69.0966 187.184 69.272 190.73C69.272 191.345 68.9103 192.278 69.9736 192.377C70.2644 191.887 70.43 191.332 70.456 190.763C70.4998 189.05 70.456 187.337 70.456 184.955Z" fill="white"/>
<path d="M103.595 73.4505C103.52 72.8589 103.38 72.2772 103.179 71.7158C102.083 69.1796 99.7257 68.1256 97.4346 67.0277C97.2592 66.9399 96.9193 67.1814 96.6562 67.2693C96.7659 67.5547 96.7878 67.9719 96.9961 68.1037C97.8073 68.6307 98.6843 69.0259 99.4955 69.531C103.179 71.8256 103.321 75.0205 99.934 77.7653C99.6819 77.9739 99.638 78.446 99.4955 78.7864C99.8792 78.7864 100.362 78.9072 100.592 78.7315C102.462 77.6342 103.607 75.6216 103.595 73.4505Z" fill="white"/>
<path d="M123.383 24.3847C122.7 24.5577 122.033 24.7854 121.387 25.0654C121.091 25.2191 120.971 25.6802 120.773 26.0096C121.111 26.0965 121.456 26.1516 121.804 26.1743C122.692 26.0332 123.59 25.9671 124.49 25.9766C126.792 26.2731 129.072 26.7452 131.374 27.0746C131.78 27.1294 132.24 26.822 132.668 26.6793C132.317 26.4158 132.01 25.9876 131.626 25.9108C129.905 25.5594 128.173 25.252 126.441 25.0324C125.345 24.9007 124.49 24.6482 124.15 23.3746C123.908 22.7202 123.513 22.133 122.999 21.6618C122.801 21.4532 122.341 21.4862 122.001 21.4093C121.969 21.7536 122.006 22.1009 122.111 22.4304C122.451 23.0562 122.922 23.7149 123.383 24.3847Z" fill="white"/>
<path d="M115.095 152.5L115.555 152.687C115.731 152.259 116.125 151.776 116.027 151.425C115.237 148.46 114.371 145.529 113.483 142.641C113.396 142.345 112.979 142.147 112.716 141.906C112.584 142.268 112.256 142.674 112.343 143.003C113.22 146.133 114.163 149.317 115.095 152.5Z" fill="white"/>
<path d="M110.37 155.157C108.682 153.324 107.081 151.545 105.382 149.778L105.075 149.865C105.196 150.349 105.163 150.963 105.459 151.293C106.555 152.566 107.838 153.741 109.011 154.982C109.625 155.641 110.107 155.487 110.37 155.157Z" fill="white"/>
<path d="M113.626 115.281C113.735 114.875 113.801 114.578 113.889 114.293C114.777 111.625 115.698 110.868 118.504 111.296C124.534 112.218 130.508 113.492 136.044 116.127C137.449 116.834 138.733 117.761 139.848 118.871C141.229 120.233 141.043 121.199 139.98 122.824C138.271 125.28 135.93 127.227 133.205 128.456C128.228 130.926 123.207 133.342 118.307 135.955C116.809 136.782 115.493 137.902 114.437 139.249C112.785 141.574 110.118 142.963 107.268 142.982C106.259 143.074 105.259 143.239 104.275 143.476C104.637 148.219 103.486 152.61 102.225 156.991C102.043 157.761 101.46 158.374 100.701 158.594C97.6097 159.692 94.5731 160.965 91.4488 161.997C82.9529 164.786 75.5642 169.683 67.8138 173.976C66.9106 174.426 66.0323 174.924 65.1828 175.469C61.335 178.269 56.961 178.466 52.4773 178.082C50.9658 177.828 49.4142 177.984 47.9827 178.532C46.0325 179.555 43.6363 179.1 42.1945 177.434C40.439 175.599 38.7953 173.659 37.2724 171.626C36.4043 170.284 36.1416 168.638 36.5489 167.092C37.2066 163.381 37.6451 159.626 38.2261 155.893C38.6332 153.197 39.5764 150.609 40.9996 148.284C42.7317 145.441 44.3651 142.52 46.2616 139.787C52.128 131.178 57.5364 122.265 62.4641 113.085C64.2619 109.792 66.301 106.695 68.2304 103.511C69.0377 102.136 70.3945 101.173 71.9576 100.865C75.5752 100.009 79.1599 98.9551 82.7775 98.0987C83.7644 97.9832 84.7614 97.9832 85.7484 98.0987V98.5489C84.9919 98.7575 84.2355 98.9771 83.4682 99.1747C79.6971 100.163 75.937 101.184 72.1549 102.117C70.9679 102.348 69.9287 103.059 69.2827 104.082C67.1999 107.53 64.9635 110.9 63.067 114.458C57.8389 124.289 52.018 133.793 45.6367 142.916C41.2323 149.087 38.6768 156.388 38.27 163.963C38.2085 165.104 38.0359 166.237 37.7547 167.344C37.3537 168.627 37.5945 170.025 38.4015 171.099C39.9692 173.075 41.6903 174.953 43.4114 176.786C44.3888 177.819 45.9289 178.083 47.1934 177.434C49.0609 176.689 51.0945 176.461 53.0802 176.775C57.0574 177.371 61.1166 176.535 64.536 174.415C69.4581 171.308 74.5009 168.343 79.6971 165.73C84.3013 163.425 89.1906 161.657 93.9483 159.692C95.6474 159 97.3795 158.407 99.1774 157.738C96.7437 155.289 95.8009 152.171 94.8582 149.086C93.6961 145.276 92.6657 141.401 91.7119 137.536C90.8349 134.066 90.6924 130.619 92.9507 127.106L89.0152 128.764C82.6131 131.388 76.1781 133.946 69.8199 136.669C67.0245 137.854 64.1414 137.646 61.2692 137.766C58.262 137.716 55.3366 138.748 53.0254 140.676C52.8062 140.863 52.3458 140.786 52.0059 140.841C52.0936 140.467 52.0059 139.951 52.2909 139.743C54.257 137.947 56.764 136.858 59.4165 136.647C59.9376 136.556 60.4666 136.519 60.9951 136.537C65.5555 136.943 69.6993 135.538 73.8102 133.77C80.3329 130.959 86.8994 128.28 93.455 125.558C94.6279 125.075 95.8667 124.778 97.0506 124.328C97.9542 124.039 98.8192 123.641 99.6268 123.142C101.548 121.807 103.794 121.018 106.128 120.859C107.224 120.793 107.443 120.354 107.509 119.431C107.597 118.333 107.827 117.17 107.991 116.039C108.094 115.271 108.552 114.596 109.227 114.218C109.902 113.84 110.716 113.803 111.422 114.117C112.113 114.425 112.804 114.809 113.626 115.281ZM95.9763 148.91L96.4477 149.108C97.6865 147.757 98.8923 146.385 100.175 145.079C102.118 142.933 104.858 141.685 107.75 141.631C109.886 141.575 111.874 140.528 113.133 138.798C114.322 137.305 115.765 136.033 117.397 135.044C122.056 132.507 126.879 130.29 131.648 127.885C133.315 127.006 134.936 126.042 136.504 124.998C136.992 124.603 137.437 124.158 137.831 123.669C127.088 126.183 117.726 123.318 109.219 116.412C108.989 117.96 108.737 119.289 108.616 120.628C108.517 121.66 108.079 122.055 107.037 122.088C104.388 122.146 101.826 123.05 99.7255 124.668C98.9868 125.128 98.1955 125.497 97.3685 125.766C96.8358 125.912 96.3152 126.099 95.8119 126.326C93.7513 127.538 92.4966 129.763 92.5227 132.156C92.5371 134.301 92.7945 136.437 93.2905 138.524C94.0469 141.971 95.0555 145.408 95.9763 148.866V148.91ZM139.552 120.562C138.456 118.531 136.592 117.609 134.707 116.796C129.544 114.697 124.137 113.262 118.614 112.525C116.421 112.174 115.851 112.679 115.007 114.721C114.678 115.534 114.843 115.819 115.599 116.214C119.27 118.024 123.222 119.194 127.285 119.673C129.828 119.914 132.415 119.673 134.959 119.673C135.412 119.722 135.857 119.825 136.285 119.98C135.956 120.266 135.638 120.771 135.288 120.793C133.082 121.081 130.857 121.195 128.633 121.133C122.687 120.521 116.931 118.682 111.729 115.731C111.205 115.495 110.666 115.29 110.118 115.116C110.217 115.479 110.206 115.6 110.26 115.643C116.531 121.084 124.683 123.843 132.964 123.329C135.428 123.263 137.778 122.276 139.552 120.562ZM100.931 157.002C102.17 152.61 103.266 148.658 102.927 144.376C100.789 146.22 98.8046 148.164 96.8533 150.14C96.7062 150.343 96.6692 150.607 96.7547 150.843C97.522 152.511 98.2565 154.202 99.1554 155.783C99.4405 156.277 100.208 156.497 100.931 157.002Z" fill="black"/>
<path d="M75.7837 83.0903C75.4101 83.3032 75.1494 83.6704 75.0712 84.0937C74.993 84.5171 75.1053 84.9534 75.3781 85.2861C76.4744 86.7793 77.746 88.1846 78.9738 89.5899C79.3112 89.9195 79.6782 90.2171 80.0701 90.4792L79.8398 90.9404L77.8228 90.0291L77.6693 90.1389C78.1123 90.6842 78.608 91.1843 79.1492 91.6321C80.8381 92.8847 82.6191 94.0078 84.477 94.9917C90.2103 97.6926 95.7135 96.7154 100.712 93.1691C102.791 91.4919 104.718 89.6328 106.468 87.6137C108.244 85.7911 109.932 83.8917 111.587 82.1241L111.401 80.7956C111.911 80.8391 112.411 80.9652 112.881 81.1689C116.169 83.4526 119.666 85.5606 123.755 85.8021C128.568 86.3335 133.39 84.8875 137.119 81.7947C140.035 79.2805 140.407 75.6574 139.969 71.9135C139.892 71.3096 139.629 70.7168 139.607 70.1129C139.607 69.7616 139.881 69.3993 140.024 69.015C140.32 69.2785 140.78 69.4871 140.879 69.8055C141.736 72.6358 141.694 75.6628 140.758 78.468C139.949 81.1267 138.07 83.3271 135.573 84.5395C128.371 88.1846 121.322 88.2285 114.426 83.6941C114.028 83.3296 113.493 83.1534 112.957 83.2101C112.42 83.2668 111.934 83.5509 111.62 83.9906C110.283 85.3849 108.967 86.7903 107.652 88.1846C106.336 89.579 104.79 91.149 103.365 92.6421C99.5394 96.6166 94.6172 97.7145 89.4101 97.6486C87.4047 97.4775 85.4546 96.9024 83.6767 95.9578C81.8491 95.0068 80.1037 93.9051 78.4586 92.6641C77.8516 92.2681 77.3389 91.7434 76.9567 91.127C75.897 89.1727 74.9067 87.1855 73.9859 85.1653C73.5862 84.1696 73.8742 83.0294 74.6985 82.3437C75.5661 81.2351 75.4721 79.6524 74.4792 78.6547C73.6277 77.9048 72.8394 77.0859 72.1223 76.2063C71.2672 75.1084 71.4974 74.0983 72.8239 73.5604C74.0993 73.0087 75.0746 71.932 75.4987 70.607C76.5073 68.4111 77.8447 66.3251 78.9957 64.1842C79.2785 63.6383 79.4921 63.0593 79.6316 62.4604C80.3551 59.2435 82.712 58.7714 85.7925 59.4412C86.3807 59.5977 87.005 59.5433 87.5574 59.2875C94.1795 55.3842 100.074 50.3578 104.977 44.4326C105.47 43.7885 105.694 42.9775 105.602 42.1709C105.111 39.4597 105.714 36.6643 107.279 34.3977C108.069 33.2089 108.98 32.1051 109.998 31.1039C110.195 30.8953 110.82 31.1039 111.236 31.1039C111.125 31.4669 110.974 31.8166 110.787 32.147C110.419 32.5406 110.023 32.9075 109.603 33.2449C112.234 33.0912 114.492 33.3327 116.411 34.8588L117.189 32.8387C115.939 32.3226 114.481 31.6749 113.001 31.1259C111.686 30.6318 110.326 30.3135 109.022 29.7974C108.682 29.6547 108.211 28.974 108.309 28.6995C109.012 26.8748 109.806 25.0866 110.688 23.3417C110.879 22.9053 111.263 22.5834 111.725 22.4714C112.188 22.3594 112.676 22.4701 113.045 22.7708C115.38 24.1432 117.715 25.5265 120.061 26.888C120.96 27.415 121.157 27.9859 120.543 28.9191C120.076 29.7581 119.673 30.6317 119.338 31.5321C119.25 31.7298 119.239 32.0152 119.096 32.125C117.726 33.1131 118.077 34.7051 117.682 36.0336C117.198 38.2746 116.123 40.3447 114.569 42.0282C113.963 42.6226 113.136 42.937 112.289 42.8956C109.142 42.1709 107.345 43.6751 105.382 45.9697C99.1537 53.3247 91.3885 59.2203 82.6353 63.2399C80.788 63.9979 79.2824 65.4081 78.4038 67.2034C77.6494 68.686 76.9725 70.2068 76.3757 71.7598C76.0345 72.9998 75.1028 73.9905 73.8872 74.4058C73.5073 74.5877 73.1409 74.7969 72.791 75.0316C73.2056 75.6472 73.6793 76.2208 74.2051 76.7443C77.2417 79.2695 80.2016 81.9045 83.3807 84.2211C90.0595 89.1571 99.4337 87.9575 104.659 81.4983C105.813 80.0108 107.081 78.6158 108.452 77.3262C109.403 76.6557 110.469 76.168 111.598 75.8879C111.85 75.8001 112.278 76.2283 112.629 76.4259C112.344 76.6894 112.048 77.1725 111.763 77.1725C110.587 77.1958 109.533 77.9037 109.066 78.9841C107.9 80.8392 106.828 82.752 105.854 84.7152C103.146 90.4683 98.3006 92.5104 92.4028 92.1481C86.5784 91.9405 81.099 89.3298 77.2637 84.9348C76.7594 84.3748 76.3209 83.771 75.7837 83.0903ZM105.064 83.3757C103.376 84.4736 101.48 86.2303 99.2434 87.1086C93.6748 89.4391 87.2931 88.6678 82.4379 85.0775C80.7168 83.8698 79.1492 82.4754 77.472 81.1689C77.2308 80.9823 76.9677 80.8066 76.7155 80.6309L76.3538 80.9164C76.9158 82.0668 77.5721 83.1685 78.3161 84.2101C81.846 88.4042 86.6146 90.3146 91.8876 90.9074C97.4346 91.5003 103.19 89.2715 105.064 83.3757ZM119.634 27.7992C117.595 26.7013 115.599 25.5375 113.571 24.4506C111.85 23.5174 111.697 23.5393 110.864 25.307C110.444 26.3377 110.078 27.3894 109.767 28.458L117.847 31.5102L119.634 27.7992ZM111.39 35.3858C110.719 35.3191 110.043 35.3191 109.373 35.3858C108.836 35.4956 108.035 35.7591 107.893 36.1544C107.399 37.5158 107.038 38.9321 106.632 40.4472C106.571 40.6785 106.62 40.9254 106.766 41.1148C106.913 41.3042 107.139 41.4146 107.378 41.4134H109.121C109.952 41.3615 110.786 41.3983 111.609 41.5232C113.122 41.8745 113.878 41.106 114.492 39.8983C111.642 39.5799 110.798 38.427 111.39 35.3858ZM80.9032 62.68L85.2882 60.7257C82.7778 60.034 81.6377 60.5501 80.9032 62.68Z" fill="black"/>
<path d="M144.77 105.828C144.926 106.919 145.011 108.02 145.022 109.122C144.983 109.676 144.682 110.178 144.211 110.472C137.634 112.668 131.056 113.338 124.325 111.296C122.276 110.5 120.353 109.413 118.614 108.068C117.319 107.091 116.092 106.027 114.941 104.884C113.401 103.512 112.808 101.363 113.428 99.3943C113.531 99.0183 113.755 98.6865 114.064 98.4501C117.441 96.1664 120.839 93.9267 124.215 91.643C126.694 89.9517 129.648 89.0978 132.646 89.2056C136.548 89.3044 140.462 89.2056 144.343 89.524C146.49 89.8743 148.581 90.5132 150.558 91.4234C153.211 92.4555 155.787 93.6741 158.374 94.805C160.392 92.8068 161.466 92.8288 163.987 94.9916C170.894 100.953 177.877 106.816 184.641 112.932C190.407 118.136 197.094 122.022 203.277 126.568C205.327 128.072 207.541 129.356 209.547 130.959C210.655 131.804 211.602 132.842 212.343 134.023C213.307 135.626 213.954 137.426 214.765 139.117C215.96 141.609 217.1 144.112 218.405 146.539C219.207 147.765 219.393 149.295 218.909 150.678C217.868 153.423 216.914 156.168 215.719 158.868C214.831 160.867 214.349 160.932 212.222 160.537C211.764 160.5 211.305 160.603 210.907 160.834C207.146 162.766 203.233 164.248 198.957 163.941C194.188 163.532 189.557 162.126 185.364 159.813C183.997 158.939 182.801 157.823 181.834 156.519C175.535 148.813 168.695 141.567 161.367 134.835C159.08 132.931 156.658 131.196 154.121 129.642C152.696 128.709 151.83 127.644 152.005 125.898L153.102 113.986C153.102 113.645 153.178 113.305 153.211 112.976C153.091 112.91 153.025 112.822 152.948 112.822C149.78 112.986 147.894 111.34 146.765 108.518C146.306 107.523 145.79 106.555 145.22 105.619L144.77 105.828ZM154.79 113.085L154.362 112.899C154 117.488 153.595 122.066 153.343 126.645C153.343 127.194 153.968 127.94 154.505 128.335C157.114 130.312 160.074 131.915 162.398 134.187C168.442 140.116 174.325 146.198 180.047 152.435C186.252 159.209 184.103 158.682 194.748 161.921C197.287 162.814 200.025 162.977 202.652 162.393C205.173 161.745 207.596 160.702 210.084 159.878C210.899 159.484 211.801 159.306 212.704 159.362C213.108 159.541 213.569 159.53 213.964 159.332C214.358 159.135 214.644 158.771 214.743 158.341C215.876 155.458 216.972 152.548 218.032 149.613C218.177 149.064 218.126 148.482 217.89 147.966C215.993 143.871 214.053 139.809 212.112 135.735C211.261 133.942 209.929 132.422 208.265 131.344C201.687 126.952 194.978 122.758 188.828 117.839C180.277 111.01 172.176 103.566 163.889 96.4409C163.267 95.8849 162.612 95.3679 161.926 94.8928C161.115 94.3549 160.731 94.4976 159.953 95.5406C162.705 95.7602 162.474 97.967 162.847 99.7895C162.895 100.003 162.932 100.22 162.957 100.437C163.483 104.576 163.702 108.716 161.663 112.514C160.019 115.611 158.177 118.597 156.368 121.594C156.138 121.978 155.546 122.132 155.13 122.385C155.118 121.915 155.188 121.447 155.338 121.001C156.938 118.18 158.627 115.435 160.194 112.569C160.944 111.137 161.476 109.602 161.773 108.013C162.272 104.718 162.093 101.355 161.247 98.1317C161.104 97.6544 160.77 97.2573 160.326 97.0338C155.941 95.0868 151.556 93.1801 147.171 91.3136C146.364 90.9749 145.502 90.7852 144.628 90.7537C140.33 90.6219 136.033 90.567 131.747 90.5122C129.827 90.4016 127.92 90.8887 126.287 91.9065C122.56 94.3805 118.844 96.8654 115.139 99.3614C114.838 99.589 114.634 99.9225 114.569 100.295C114.295 101.708 114.817 103.158 115.928 104.071C117.101 105.071 118.252 106.092 119.392 107.113C121.225 108.765 123.447 109.924 125.849 110.483C129.625 111.333 133.53 111.445 137.349 110.813C139.541 110.472 141.668 109.923 143.86 109.451L143.641 107.727C142.918 107.898 142.186 108.026 141.448 108.112C141.097 108.046 140.762 107.911 140.462 107.716C140.703 107.464 140.9 107.08 141.207 106.981C141.844 106.781 142.492 106.62 143.148 106.498C143.52 105.619 143.74 104.5 144.058 104.478C144.838 104.503 145.596 104.742 146.25 105.169C146.623 105.378 146.842 105.905 147.083 106.267C147.392 106.797 147.656 107.351 147.872 107.925C148.501 110.444 151.001 112.018 153.54 111.493C153.798 111.455 154.06 111.455 154.318 111.493C154.987 111.625 155.634 111.801 156.292 111.954L154.79 113.085Z" fill="black"/>
<path d="M152.323 21.8924C151.918 21.7058 153.288 21.8924 155.261 23.3417C159.751 26.6402 163.267 31.0941 165.434 36.2312C168.723 43.9166 170.817 51.8545 169.984 60.2756C169.723 63.4384 169.971 66.6226 170.718 69.7067C171.285 72.8081 171.59 75.952 171.628 79.1048C171.746 82.0673 170.9 84.988 169.216 87.427C168.756 88.1187 168.329 88.8214 167.726 89.7656C172.374 91.1599 176.835 92.5653 181.341 93.773C182.506 93.9865 183.541 94.6487 184.224 95.6175C185.605 97.6925 186.998 99.7676 188.247 101.93C191.337 107.465 194.977 112.674 199.111 117.477C201.227 119.87 203.036 122.538 204.976 125.086C205.239 125.415 208.637 129.927 208.879 130.279L208.626 130.553C207.728 129.796 203.518 124.998 202.773 124.119C200.163 120.979 197.511 117.872 195.099 114.557C192.391 110.791 189.957 106.871 187.425 102.941C186.011 100.745 184.728 98.5489 183.226 96.419C182.616 95.7125 181.812 95.201 180.913 94.9478C176.704 93.5973 172.461 92.3347 168.241 91.0501L167.057 90.6659C166.421 91.7638 165.818 92.8617 165.182 93.9596C164.272 93.7181 164.086 93.2899 164.59 92.4774C166.026 90.1059 167.561 87.7674 168.767 85.2861C169.505 83.7386 169.969 82.0742 170.137 80.3674C170.595 76.0765 170.223 71.7375 169.041 67.5877C168.219 69.6408 167.506 71.5731 166.662 73.4396C166.363 73.9768 165.933 74.4299 165.413 74.7571C164.492 74.0983 165.347 73.4615 165.621 72.8687C168.442 66.7791 169.535 60.029 168.778 53.3587C168.15 45.3601 165.511 37.6509 161.104 30.9502C159.021 27.8651 155.009 24.6921 151.885 22.639C151.545 22.4194 152.334 22.5073 152.148 22.0461L152.323 21.8924Z" fill="black"/>
<path d="M159.909 136.284L160.216 135.669L160.589 135.582C160.927 136.3 161.135 137.074 161.203 137.865C161.115 138.7 160.216 138.7 159.504 137.865C156.083 133.968 151.402 131.849 147.061 129.17C148.157 131.157 149.254 133.133 150.218 135.142C151.402 137.492 152.411 139.896 153.682 142.224C154.745 143.972 154.372 146.235 152.805 147.549C148.586 151.954 143.878 155.862 138.774 159.198C135.309 161.492 131.725 163.589 127.471 163.853C122.845 164.149 118.197 164.314 113.56 164.292C109.493 164.292 105.426 163.919 101.205 163.71C100.504 166.224 99.7801 168.783 99.0127 171.396C97.5511 176.519 96.1186 181.672 94.7155 186.854C94.6852 187.16 94.6114 187.459 94.4962 187.744C94.2819 187.983 94.0345 188.19 93.7617 188.358C93.6082 188.051 93.2903 187.7 93.3451 187.425C93.5315 186.437 93.8494 185.471 94.1235 184.505C96.0309 177.665 97.9713 170.836 99.8349 163.974C100.175 162.689 100.745 162.371 102.027 162.481C109.75 163.247 117.521 163.405 125.268 162.953C128.781 162.775 132.202 161.758 135.244 159.988C141.273 156.4 146.802 152.029 151.687 146.989C153.033 145.938 153.352 144.03 152.422 142.597C149.944 137.909 147.565 133.177 145.143 128.456C144.944 128.167 144.781 127.853 144.66 127.523C144.618 127.21 144.618 126.892 144.66 126.579C144.945 126.579 145.274 126.579 145.483 126.677C150.405 129.631 155.48 132.42 159.909 136.284Z" fill="black"/>
<path d="M152.531 21.9583C149.243 26.6903 146.425 31.6419 145.263 37.3291C145.132 37.9659 145.176 38.6466 145.022 39.2724C144.866 39.6705 144.648 40.0412 144.375 40.3703C144.2 40.019 143.805 39.6238 143.871 39.2724C144.529 36.4288 144.902 33.4425 146.064 30.8075C147.7 27.3645 149.576 24.0406 151.676 20.8604C153.054 18.7899 153.477 16.227 152.838 13.8227C151.841 9.87023 150.766 5.95067 149.637 1.74566C149.002 2.58007 148.541 3.16197 148.125 3.71093C146.129 6.21417 144.156 8.6735 142.128 11.0889C140.582 12.8822 139.616 15.1023 139.355 17.4568C138.732 21.8927 138.541 26.3786 138.785 30.8514C138.85 31.7188 139.004 32.5971 139.004 33.4644C138.924 33.8829 138.772 34.2842 138.554 34.6502C138.302 34.3098 137.831 33.9695 137.809 33.6182C137.688 29.8084 137.502 25.9986 137.601 22.1889C137.712 19.7839 138.027 17.3928 138.543 15.0414C138.797 13.8874 139.302 12.8039 140.023 11.8684C142.928 8.06965 145.921 4.39163 148.903 0.603824C149.604 -0.274509 150.328 -0.186675 150.613 0.834386C151.709 4.92961 152.882 9.02484 153.967 13.142C154.862 16.179 154.32 19.4586 152.499 22.0461L152.531 21.9583Z" fill="black"/>
<path d="M126.288 15.4366C127.548 17.1714 128.787 18.7963 129.916 20.4871C130.146 20.8384 129.971 21.4642 129.993 21.9583C129.62 21.6728 129.116 21.4752 128.897 21.1019C127.33 18.2829 125.011 15.9564 122.199 14.3826C117.112 11.5061 112.486 11.9453 107.947 15.6562C105.936 17.4349 104.313 19.6103 103.179 22.0461C102.269 23.7918 101.392 25.5594 100.405 27.2722C99.3684 29.3802 97.2681 30.756 94.9241 30.8624C95.4941 33.168 97.6099 34.7819 100.493 35.0784C101.315 35.1552 102.159 35.0235 102.982 35.0784C103.329 35.1647 103.659 35.3095 103.957 35.5065C103.716 35.7591 103.508 36.1543 103.212 36.2422C99.5283 37.395 94.4418 34.6282 93.3455 30.8953C93.1043 30.0938 93.4222 29.6107 94.1677 29.6437C97.1495 29.7754 98.6952 27.909 99.9339 25.6033C100.888 23.8357 101.743 22.0022 102.686 20.2236C104.652 16.3377 108.036 13.3581 112.135 11.9014C116.279 10.4082 119.94 11.6269 123.514 13.7239C124.214 14.0088 124.954 14.1864 125.707 14.2509C127.79 14.6791 129.916 14.9426 131.944 15.5574C134 16.3801 135.994 17.3525 137.908 18.4669C138.204 18.6316 138.292 19.1915 138.467 19.5648C138.078 19.6132 137.684 19.5871 137.305 19.488C134.251 17.7118 130.958 16.3844 127.526 15.5464C127.116 15.4893 126.702 15.4526 126.288 15.4366Z" fill="black"/>
<path d="M102.883 161.394C102.685 161.251 102.258 161.042 102.28 160.921C102.346 160.599 102.534 160.316 102.806 160.131C104.176 159.45 105.59 158.857 106.972 158.188L121.574 150.974C124.561 149.547 127.092 147.316 128.885 144.53C132.174 139.391 135.277 134.165 138.489 128.994C141.543 123.764 143.843 118.127 145.318 112.251C145.347 111.99 145.425 111.736 145.548 111.504C145.787 111.251 146.048 111.02 146.327 110.813C146.458 111.142 146.732 111.493 146.678 111.79C146.546 112.602 146.25 113.393 146.042 114.194C143.849 122.758 139.366 130.169 134.926 137.613C133.358 140.248 131.637 142.762 129.872 145.298C127.952 148.188 125.305 150.521 122.198 152.061L103.781 161.031C103.485 161.163 103.266 161.251 102.883 161.394Z" fill="black"/>
<path d="M93.0163 119.958C91.92 119.629 91.1088 119.42 90.2976 119.124C89.1465 118.707 87.9845 118.311 86.8773 117.784C83.0843 115.973 82.4156 114.304 84.4217 110.615C86.4278 106.926 88.8067 103.248 91.0979 99.6359C91.3719 99.1967 92.0406 99.0101 92.5339 98.7026L92.8628 99.0869C92.6216 99.4712 92.3805 99.8445 92.1503 100.185C89.9578 103.852 87.5899 107.464 85.507 111.164C83.8517 114.128 84.2244 115.149 87.3706 116.533C89.5631 117.488 91.8323 118.059 94.0687 118.827C94.452 119.003 94.8188 119.212 95.1649 119.453C94.9726 119.819 94.7248 120.152 94.4304 120.441C93.0821 121.397 91.7118 122.363 90.2866 123.208C89.4535 123.702 89.0588 124.306 89.3439 125.206C89.4351 125.456 89.4578 125.725 89.4096 125.986C89.2727 126.266 89.0954 126.525 88.8834 126.754C88.6752 126.568 88.3682 126.425 88.2695 126.194C87.546 124.383 87.8968 123.34 89.5412 122.242L93.0163 119.958Z" fill="black"/>
<path d="M112.037 85.9338C111.379 89.3484 110.94 92.8397 109.987 96.1554C109.446 97.9248 109.802 99.8473 110.94 101.305C111.061 101.48 111.269 101.623 111.335 101.821C111.405 102.158 111.452 102.499 111.477 102.842C111.105 102.754 110.579 102.842 110.381 102.545C109.767 101.777 109.285 100.909 108.66 99.9652C107.38 103.905 106.714 108.02 106.687 112.163C106.687 113.964 106.796 115.753 106.796 117.554C106.796 117.905 106.468 118.256 106.303 118.652C106.073 118.355 105.667 118.059 105.634 117.74C104.869 111.133 105.669 104.438 107.969 98.1976C109.166 94.826 110.004 91.3372 110.469 87.7893C110.687 87.0716 111.005 86.388 111.412 85.7582L112.037 85.9338Z" fill="black"/>
<path d="M164.097 187.798C166.531 176.073 170.412 160.351 174.818 149.207C175.038 148.658 175.641 148.274 176.068 147.823C176.121 148.411 176.084 149.003 175.959 149.58C172.347 159.109 169.417 168.883 167.189 178.829C166.597 181.485 166.092 184.153 165.588 186.821C165.446 187.634 165.117 187.996 164.097 187.798Z" fill="black"/>
<path d="M131.769 41.7208L125.103 42.2148C123.185 42.3576 122.768 42.0282 122.615 40.1068C122.505 38.8833 122.505 37.6524 122.615 36.4288C122.747 35.9435 123.12 35.5612 123.602 35.4187C127.447 35.33 131.289 35.7284 135.035 36.6045C136.702 36.9888 137.052 40.7436 136.044 41.622C135.763 41.8097 135.427 41.8986 135.09 41.8745C133.994 41.8745 132.898 41.8745 131.801 41.8745L131.769 41.7208ZM135.211 40.5021C135.496 38.1526 135.298 37.7463 133.095 37.4609C130.365 37.1205 127.614 36.9668 124.862 36.7582C124.515 36.7683 124.17 36.8124 123.832 36.89L124.095 40.9962C126.09 40.8315 127.866 40.6229 129.653 40.546C131.44 40.4692 133.259 40.535 135.156 40.535L135.211 40.5021Z" fill="black"/>
<path d="M148.892 88.9312C147.796 89.0519 147.467 88.6128 147.675 87.7235C148.059 86.0107 148.388 84.287 148.892 82.6182C150.547 77.1286 152.345 71.639 153.935 66.1494C154.603 63.8109 154.867 61.3625 155.338 58.969C155.448 58.3981 155.009 57.4649 156.051 57.5088C156.248 57.5088 156.632 58.6067 156.533 59.1447C155.985 62.5526 155.254 65.9282 154.34 69.2565C152.323 75.7562 150.01 82.179 148.892 88.9312Z" fill="black"/>
<path d="M95.0334 73.2968C96.886 73.2968 98.3879 74.3398 98.3221 75.6024C98.2563 76.865 96.5024 78.0288 94.7593 77.7104C93.2971 77.3962 91.7707 77.6223 90.4621 78.3472C89.6399 78.7974 89.2123 78.3472 89.3658 77.5567C89.5513 76.797 89.9033 76.0882 90.3963 75.4817C91.5967 74.1734 93.2617 73.3889 95.0334 73.2968Z" fill="black"/>
<path d="M131.845 16.0185C131.432 15.5578 131.065 15.0577 130.749 14.5254C130.332 13.658 129.412 11.1218 129.138 10.1996C128.568 8.35508 128.041 6.48862 127.471 4.46846C127.05 4.77342 126.68 5.14409 126.375 5.56637C125.356 7.39989 123.854 10.5619 122.966 12.4613C122.615 13.1969 122.286 13.5592 121.343 13.0761C122.44 10.3204 124.04 6.19219 126.134 3.96342C126.697 3.45603 127.458 3.23011 128.206 3.34858C128.633 3.45838 128.907 4.4465 129.083 5.12721C129.423 6.37883 129.543 7.69633 129.938 8.926C130.475 10.6607 131.769 13.9654 132.404 15.6782L131.845 16.0185Z" fill="black"/>
<path d="M142.863 30.028C143.094 29.62 143.362 29.2341 143.663 28.8751C143.931 28.7085 144.229 28.5965 144.54 28.5458C144.54 28.8861 144.759 29.3143 144.617 29.5558C144.163 30.3014 143.645 31.0067 143.071 31.6638C142.841 31.9273 142.249 32.2457 142.117 32.1469C141.745 31.8891 141.489 31.4946 141.405 31.049C141.352 29.8241 141.466 28.5977 141.745 27.4039C142.775 23.9235 143.937 20.4871 145.121 17.0616C145.242 16.7212 145.768 16.5346 146.097 16.282C146.204 16.6976 146.237 17.1286 146.195 17.5556C145.099 21.069 144.003 24.5493 142.907 28.0627C142.759 28.6976 142.668 29.3442 142.633 29.995L142.863 30.028Z" fill="black"/>
<path d="M123.646 45.0145C126.606 45.6074 129.357 46.2332 132.131 46.6614C133.116 46.6538 134.097 46.5397 135.058 46.321C135.482 46.334 135.905 46.3891 136.318 46.4857C136.055 46.837 135.88 47.3091 135.54 47.5177C134.244 48.1713 132.75 48.3162 131.352 47.924C128.648 47.4848 125.941 47.0713 123.229 46.6833C122.221 46.5406 121.793 46.0246 122.21 45.0913C122.519 44.425 122.959 43.8276 123.503 43.3347C123.766 43.1041 124.347 43.2359 124.775 43.192L124.874 43.5652L123.646 45.0145Z" fill="black"/>
<path d="M70.456 184.955C70.456 187.337 70.456 189.05 70.456 190.763C70.43 191.332 70.2644 191.887 69.9736 192.377C68.8774 192.278 69.3049 191.345 69.272 190.73C69.0966 187.184 69.0089 183.626 68.8335 180.08C68.7568 178.587 68.2635 175.063 68.1758 173.58C68.2375 173.081 68.3898 172.598 68.6252 172.153C68.8774 172.548 69.3159 172.933 69.3597 173.35C69.7105 176.764 70.1929 182.254 70.456 184.955Z" fill="black"/>
<path d="M103.595 73.4505C103.618 75.6104 102.496 77.6205 100.646 78.7315C100.361 78.9072 99.8791 78.7315 99.5502 78.7864C99.6927 78.4461 99.7366 77.9739 99.9887 77.7653C103.376 75.0315 103.277 71.8256 99.5502 69.531C98.739 69.0259 97.862 68.6307 97.0508 68.1037C96.8425 67.9719 96.8206 67.5547 96.7109 67.2693C96.974 67.1814 97.3139 66.9399 97.4893 67.0277C99.7804 68.1256 102.137 69.2235 103.234 71.7158C103.416 72.2793 103.537 72.8609 103.595 73.4505Z" fill="black"/>
<path d="M123.383 24.3847C122.922 23.7149 122.451 23.1001 122.078 22.4304C121.973 22.1009 121.936 21.7536 121.968 21.4093C122.308 21.4862 122.769 21.4093 122.966 21.6618C123.491 22.1263 123.897 22.7098 124.15 23.3636C124.49 24.6372 125.334 24.8897 126.441 25.0214C128.173 25.241 129.905 25.5484 131.626 25.8998C132.01 25.9766 132.317 26.4048 132.668 26.6683C132.24 26.811 131.78 27.1185 131.374 27.0636C129.072 26.7452 126.792 26.2731 124.49 25.9657C123.59 25.9562 122.692 26.0223 121.804 26.1633C121.456 26.1406 121.111 26.0855 120.773 25.9986C120.971 25.6692 121.091 25.2081 121.387 25.0544C122.033 24.7781 122.701 24.5542 123.383 24.3847Z" fill="black"/>
<path d="M95.9764 148.866C95.0556 145.408 94.047 141.971 93.2687 138.48C92.7727 136.393 92.5153 134.257 92.5009 132.112C92.4747 129.719 93.7295 127.495 95.79 126.282C96.2934 126.055 96.8139 125.868 97.3467 125.722C98.1736 125.453 98.965 125.084 99.7036 124.624C101.804 123.006 104.366 122.102 107.016 122.044C108.112 122.044 108.496 121.616 108.594 120.584C108.715 119.245 108.967 117.916 109.197 116.368C117.704 123.274 127.066 126.139 137.809 123.625C137.415 124.114 136.97 124.559 136.483 124.954C134.914 125.998 133.293 126.962 131.626 127.841C126.912 130.246 122.089 132.463 117.375 135C115.748 136.005 114.311 137.291 113.133 138.798C111.875 140.528 109.886 141.575 107.75 141.631C104.86 141.683 102.12 142.926 100.175 145.068C98.8924 146.374 97.6865 147.746 96.4478 149.097L95.9764 148.866Z" fill="white"/>
<path d="M139.552 120.562C137.773 122.254 135.428 123.221 132.975 123.274C124.694 123.788 116.542 121.029 110.271 115.589C110.217 115.589 110.271 115.424 110.129 115.062C110.677 115.235 111.216 115.44 111.74 115.676C116.942 118.627 122.698 120.466 128.644 121.078C130.868 121.14 133.093 121.026 135.299 120.738C135.649 120.738 135.967 120.211 136.296 119.925C135.868 119.77 135.423 119.667 134.97 119.618C132.405 119.618 129.817 119.881 127.296 119.618C123.237 119.141 119.289 117.975 115.621 116.17C114.865 115.819 114.7 115.49 115.029 114.677C115.873 112.646 116.454 112.141 118.636 112.481C124.155 113.219 129.559 114.654 134.718 116.752C136.592 117.609 138.456 118.575 139.552 120.562Z" fill="black"/>
<path d="M100.931 157.002C100.208 156.552 99.4405 156.332 99.1555 155.838C98.2566 154.257 97.5221 152.544 96.7547 150.898C96.6693 150.661 96.7063 150.398 96.8534 150.195C98.8047 148.219 100.789 146.275 102.927 144.431C103.266 148.658 102.17 152.61 100.931 157.002Z" fill="white"/>
<path d="M105.064 83.3757C103.19 89.2715 97.3904 91.5003 91.8434 90.8745C86.5704 90.2816 81.8018 88.3712 78.2719 84.1772C77.5279 83.1355 76.8716 82.0338 76.3096 80.8834L76.6713 80.598C76.9235 80.7736 77.1866 80.9493 77.4277 81.1359C79.0831 82.4425 80.7165 83.8368 82.3937 85.0445C87.2591 88.6511 93.6621 89.423 99.243 87.0757C101.479 86.2303 103.376 84.5395 105.064 83.3757Z" fill="white"/>
<path d="M119.633 27.7992L117.846 31.5101L109.778 28.4579C110.089 27.3894 110.455 26.3377 110.874 25.3069C111.707 23.5393 111.861 23.5173 113.582 24.4505C115.599 25.5375 117.594 26.6683 119.633 27.7992Z" fill="#535A79"/>
<path d="M111.389 35.3858C110.797 38.3831 111.642 39.5798 114.492 39.9421C113.878 41.1498 113.122 41.9184 111.609 41.567C110.785 41.4422 109.951 41.4054 109.12 41.4573H107.432C107.179 41.46 106.94 41.3432 106.787 41.1422C106.634 40.9411 106.584 40.6794 106.654 40.4362C107.048 38.943 107.399 37.5377 107.892 36.1982C108.035 35.803 108.835 35.5395 109.372 35.4297C110.042 35.3484 110.717 35.3337 111.389 35.3858Z" fill="white"/>
<path d="M80.9028 62.68C81.6373 60.55 82.7774 60.034 85.2878 60.7257L80.9028 62.68Z" fill="white"/>
<path d="M154.79 113.085L156.379 111.987C155.722 111.834 155.075 111.658 154.406 111.526C154.148 111.488 153.886 111.488 153.628 111.526C151.089 112.051 148.589 110.477 147.96 107.958C147.744 107.384 147.48 106.83 147.171 106.3C146.93 105.883 146.71 105.356 146.338 105.202C145.684 104.775 144.926 104.536 144.145 104.511C143.827 104.511 143.608 105.609 143.235 106.531C142.579 106.657 141.931 106.822 141.295 107.025C140.988 107.124 140.791 107.508 140.55 107.76C140.85 107.955 141.185 108.09 141.536 108.156C142.274 108.07 143.006 107.942 143.729 107.771L143.948 109.495C141.755 109.967 139.563 110.516 137.436 110.857C133.618 111.488 129.713 111.377 125.937 110.527C123.535 109.968 121.313 108.809 119.48 107.157C118.384 106.136 117.189 105.114 116.016 104.115C114.904 103.202 114.382 101.752 114.656 100.339C114.722 99.9664 114.925 99.633 115.226 99.4053C118.873 96.8728 122.56 94.3732 126.287 91.9065C127.893 90.8886 129.771 90.3868 131.67 90.4683C135.956 90.4683 140.254 90.5781 144.551 90.7098C145.425 90.7414 146.287 90.9311 147.094 91.2698C151.479 93.1362 155.864 95.0429 160.249 96.9899C160.694 97.2135 161.027 97.6106 161.17 98.0878C162.017 101.311 162.196 104.674 161.696 107.969C161.399 109.558 160.867 111.094 160.118 112.525C158.605 115.391 156.829 118.136 155.261 120.957C155.112 121.403 155.041 121.871 155.053 122.341C155.469 122.088 156.061 121.935 156.292 121.55C158.1 118.553 159.942 115.567 161.587 112.471C163.626 108.65 163.406 104.511 162.88 100.393C162.855 100.176 162.819 99.9595 162.77 99.7457C162.398 97.9231 162.628 95.7163 159.876 95.4967C160.655 94.4537 161.038 94.311 161.85 94.849C162.535 95.324 163.19 95.8411 163.812 96.397C172.1 103.555 180.256 110.966 188.751 117.795C194.901 122.714 201.643 126.886 208.188 131.3C209.852 132.378 211.185 133.899 212.036 135.691C213.976 139.765 215.916 143.827 217.813 147.922C218.05 148.438 218.1 149.02 217.955 149.569C216.925 152.497 215.829 155.406 214.667 158.298C214.567 158.728 214.281 159.091 213.887 159.288C213.493 159.486 213.031 159.497 212.628 159.319C211.725 159.262 210.822 159.44 210.008 159.835C207.519 160.658 205.097 161.701 202.575 162.349C199.948 162.933 197.21 162.77 194.671 161.877C184.027 158.583 186.175 159.165 179.971 152.391C174.248 146.155 168.365 140.072 162.321 134.143C159.997 131.871 157.037 130.268 154.428 128.291C153.891 127.896 153.233 127.194 153.266 126.601C153.518 122.022 153.924 117.444 154.286 112.855L154.79 113.085Z" fill="white"/>
<path d="M135.156 40.535C133.259 40.535 131.429 40.4691 129.598 40.535C127.767 40.6009 126.035 40.8205 124.04 40.9852L123.777 36.9119C124.115 36.8343 124.46 36.7902 124.807 36.7802C127.559 36.9888 130.289 37.1425 133.04 37.4828C135.244 37.7793 135.441 38.1855 135.156 40.535Z" fill="#535A79"/>
</g>
<defs>
<clipPath id="clip0">
<rect width="254" height="194" fill="white"/>
</clipPath>
</defs>
</svg>
