<svg width="30" height="30" viewBox="0 0 30 30" fill="none" xmlns="http://www.w3.org/2000/svg">
<path fill-rule="evenodd" clip-rule="evenodd" d="M15 0C6.71573 0 0 6.71573 0 15C0 23.2843 6.71573 30 15 30C23.2843 30 30 23.2843 30 15C30 6.71573 23.2843 0 15 0ZM11.7021 7.04835C12.5554 7.00952 12.8281 7.00002 15.0008 7.00002H14.9983C17.1716 7.00002 17.4433 7.00952 18.2966 7.04835C19.1483 7.08735 19.73 7.22219 20.24 7.42002C20.7667 7.62419 21.2117 7.89753 21.6567 8.34253C22.1017 8.7872 22.375 9.23354 22.58 9.75971C22.7767 10.2684 22.9117 10.8497 22.9517 11.7014C22.99 12.5547 23 12.8274 23 15.0001C23 17.1728 22.99 17.4448 22.9517 18.2981C22.9117 19.1495 22.7767 19.731 22.58 20.2398C22.375 20.7658 22.1017 21.2122 21.6567 21.6568C21.2122 22.1018 20.7665 22.3758 20.2405 22.5802C19.7315 22.778 19.1495 22.9128 18.2978 22.9518C17.4445 22.9907 17.1726 23.0002 14.9998 23.0002C12.8272 23.0002 12.5547 22.9907 11.7014 22.9518C10.8499 22.9128 10.2684 22.778 9.75938 22.5802C9.23354 22.3758 8.7872 22.1018 8.3427 21.6568C7.89786 21.2122 7.62452 20.7658 7.42002 20.2397C7.22235 19.731 7.08752 19.1496 7.04835 18.298C7.00969 17.4446 7.00002 17.1728 7.00002 15.0001C7.00002 12.8274 7.01002 12.5546 7.04819 11.7012C7.08652 10.8499 7.22152 10.2684 7.41986 9.75955C7.62486 9.23354 7.89819 8.7872 8.3432 8.34253C8.78787 7.89769 9.23421 7.62436 9.76038 7.42002C10.2691 7.22219 10.8504 7.08735 11.7021 7.04835Z" fill="#27AE60"/>
<path fill-rule="evenodd" clip-rule="evenodd" d="M14.2831 8.44167C14.4225 8.44145 14.5724 8.44152 14.7341 8.44159L15.0008 8.44167C17.1368 8.44167 17.39 8.44933 18.2335 8.48767C19.0135 8.52333 19.4368 8.65367 19.7188 8.76317C20.0922 8.90817 20.3583 9.08151 20.6382 9.36151C20.9182 9.64151 21.0915 9.90818 21.2368 10.2815C21.3463 10.5632 21.4769 10.9865 21.5124 11.7665C21.5507 12.6099 21.559 12.8632 21.559 14.9982C21.559 17.1333 21.5507 17.3866 21.5124 18.2299C21.4767 19.0099 21.3463 19.4333 21.2368 19.715C21.0918 20.0883 20.9182 20.3541 20.6382 20.634C20.3582 20.914 20.0923 21.0873 19.7188 21.2323C19.4372 21.3423 19.0135 21.4723 18.2335 21.508C17.3901 21.5463 17.1368 21.5546 15.0008 21.5546C12.8646 21.5546 12.6114 21.5463 11.7681 21.508C10.9881 21.472 10.5647 21.3416 10.2826 21.2321C9.90923 21.0871 9.64256 20.9138 9.36256 20.6338C9.08256 20.3538 8.90922 20.0878 8.76389 19.7143C8.65439 19.4326 8.52388 19.0093 8.48838 18.2293C8.45005 17.3859 8.44238 17.1326 8.44238 14.9962C8.44238 12.8599 8.45005 12.6079 8.48838 11.7645C8.52405 10.9845 8.65439 10.5612 8.76389 10.2792C8.90889 9.90585 9.08256 9.63918 9.36256 9.35918C9.64256 9.07917 9.90923 8.90584 10.2826 8.7605C10.5646 8.6505 10.9881 8.5205 11.7681 8.48467C12.5061 8.45133 12.7921 8.44133 14.2831 8.43967V8.44167ZM19.2712 9.77C18.7412 9.77 18.3111 10.1995 18.3111 10.7297C18.3111 11.2597 18.7412 11.6897 19.2712 11.6897C19.8012 11.6897 20.2312 11.2597 20.2312 10.7297C20.2312 10.1997 19.8012 9.76967 19.2712 9.76967V9.77ZM10.8924 15.0001C10.8924 12.7313 12.7318 10.8918 15.0006 10.8917C17.2695 10.8917 19.1085 12.7312 19.1085 15.0001C19.1085 17.2689 17.2696 19.1076 15.0008 19.1076C12.7319 19.1076 10.8924 17.2689 10.8924 15.0001Z" fill="#27AE60"/>
<path d="M15.0008 12.3334C16.4735 12.3334 17.6675 13.5273 17.6675 15.0001C17.6675 16.4728 16.4735 17.6668 15.0008 17.6668C13.528 17.6668 12.3341 16.4728 12.3341 15.0001C12.3341 13.5273 13.528 12.3334 15.0008 12.3334Z" fill="#27AE60"/>
</svg>
