<svg width="90" height="90" viewBox="0 0 90 90" fill="none" xmlns="http://www.w3.org/2000/svg">
<path d="M0 45C0 20.1472 20.1472 0 45 0C69.8528 0 90 20.1472 90 45C90 69.8528 69.8528 90 45 90C20.1472 90 0 69.8528 0 45Z" fill="#27AE60"/>
<path d="M0 45C0 20.1472 20.1472 0 45 0C69.8528 0 90 20.1472 90 45C90 69.8528 69.8528 90 45 90C20.1472 90 0 69.8528 0 45Z" fill="url(#paint0_linear)"/>
<path d="M60.75 31.5H58.5V29.25C58.5 28.0074 57.4926 27 56.25 27H31.5C30.2574 27 29.25 28.0074 29.25 29.25H28.125C27.5036 29.25 27 29.7536 27 30.375V34.875C27 35.4964 27.5036 36 28.125 36H29.25C29.25 37.2426 30.2574 38.25 31.5 38.25H56.25C57.4926 38.25 58.5 37.2426 58.5 36V33.75H60.75V41.625H45C43.7574 41.625 42.75 42.6324 42.75 43.875V48.375H41.625C41.0036 48.375 40.5 48.8786 40.5 49.5V61.875C40.5 62.4964 41.0036 63 41.625 63H46.125C46.7464 63 47.25 62.4964 47.25 61.875V49.5C47.25 48.8786 46.7464 48.375 46.125 48.375H45V43.875H60.75C61.9926 43.875 63 42.8676 63 41.625V33.75C63 32.5074 61.9926 31.5 60.75 31.5ZM56.25 36H31.5V29.25H56.25V36ZM45 60.75H42.75V55.125H45V60.75ZM45 52.875H42.75V50.625H45V52.875Z" fill="white"/>
<defs>
<linearGradient id="paint0_linear" x1="98" y1="108" x2="-11.5" y2="5.5107e-06" gradientUnits="userSpaceOnUse">
<stop stop-color="#27AE60"/>
<stop offset="0.910644" stop-color="#67C48E"/>
</linearGradient>
</defs>
</svg>
