<svg width="30" height="30" viewBox="0 0 30 30" fill="none" xmlns="http://www.w3.org/2000/svg">
<path fill-rule="evenodd" clip-rule="evenodd" d="M15 0C6.71573 0 0 6.71573 0 15C0 23.2843 6.71573 30 15 30C23.2843 30 30 23.2843 30 15C30 6.71573 23.2843 0 15 0ZM21.251 9.84335C21.9395 10.0323 22.4817 10.5889 22.6657 11.2958C23 12.5769 23 15.25 23 15.25C23 15.25 23 17.923 22.6657 19.2043C22.4817 19.9111 21.9395 20.4678 21.251 20.6568C20.0034 21 15 21 15 21C15 21 9.99665 21 8.74893 20.6568C8.06047 20.4678 7.51829 19.9111 7.33429 19.2043C7.00002 17.923 7.00002 15.25 7.00002 15.25C7.00002 15.25 7.00002 12.5769 7.33429 11.2958C7.51829 10.5889 8.06047 10.0323 8.74893 9.84335C9.99665 9.50002 15 9.50002 15 9.50002C15 9.50002 20.0034 9.50002 21.251 9.84335Z" fill="#27AE60"/>
<path d="M13.5 18V13L17.5 15.5001L13.5 18Z" fill="#27AE60"/>
</svg>
